<?xml version="1.0" encoding="UTF-8"?><svg id="Camada_2" xmlns="http://www.w3.org/2000/svg" viewBox="0 0 660.41 371.94"><defs><style>.cls-1{fill:#fff;}.cls-2{fill:#eb5b2b;}.cls-3{fill:#e7391d;}.cls-4{fill:#64130e;}.cls-5{fill:#fbc100;}.cls-6{fill:#f9cc94;}.cls-7{fill:#f1861b;}.cls-8{fill:#fbbb0e;}.cls-9{opacity:.3;}.cls-10{fill:#fffffe;}.cls-11{opacity:.55;}.cls-12{fill:#68b657;}.cls-13{fill:#000102;}.cls-14{fill:#f49524;}</style></defs><g id="Camada_1-2"><g><path class="cls-2" d="m76.38,148.84c10.91-1.17,20.35-2.5,29.84-3.13,12.73-.84,25.49-1.55,38.23-1.52,6.28.02,12.74,1.2,18.8,2.97,7.99,2.34,12.83,8.02,12.69,16.78-.22,12.75.07,25.52-2.46,38.15-3.15,15.75-8.26,21.13-23.87,24.04-25.56,4.77-51.39,6.66-77.36,6.86-6,.05-11.58,1.32-17.42,3-13.36,3.84-26.88,2.7-39.38-4.05-5.07-2.74-8.5-7.27-9.93-12.96-.97-3.85-1.77-7.79-2.15-11.74-3.88-40.59-4.71-81.18-.93-121.87,1.77-19.04,2.06-38.22,3.18-57.33.3-5.16.91-10.34,1.9-15.41.6-3.07,1.97-6.05,3.39-8.87C12.28,1.08,15.02-.83,17.82.36c4.82,2.05,9.41.49,14.12.39,11.96-.27,23.93-.37,35.89-.44,2.38-.01,4.8.2,7.14.67,13.26,2.63,20.28,11.04,19.08,24.6-1.38,15.48-3.54,30.9-5.89,46.27-3.54,23.25-7.55,46.43-11.31,69.64-.31,1.9-.25,3.85-.45,7.36Z"/><path class="cls-2" d="m344.13,114.16c-1.36,11.43-2.4,22.92-4.17,34.29-1.79,11.51-6.1,22.36-12.15,32.2-11.47,18.66-27.77,31.85-48.43,39.33-9.29,3.36-19.08,3.49-28.71,2.23-14.91-1.95-28.92-6.73-41.7-14.88-8.98-5.73-15.98-13.2-21.28-22.44-13.44-23.41-18.59-48.43-15.06-75.21,1.31-9.97,2.92-19.86,6.02-29.48,3.23-10.04,8.35-18.89,14.72-27.33,12.76-16.9,29.73-27.73,48.63-36.3,12-5.45,23.83-4.39,35.91-.74,16.32,4.94,30.61,13.28,43.15,24.81,5.29,4.86,9.36,10.42,12.46,16.93,6.87,14.42,12.37,38.66,10.62,56.58Zm-119.75,16.05c.28,2.34.52,6.81,1.39,11.15,1.81,8.96,7.02,15.47,15.38,19.22,12.8,5.74,23.44,4.3,33.46-6,11.62-11.96,16.73-26.87,20.4-42.59,2.42-10.37,1.96-20.61-.68-30.84-2.76-10.69-9.29-17.35-20.24-19.82-16.43-3.7-18.3-3.38-31.33,7.57-1.14.96-2.42,1.8-3.33,2.94-1.6,2-3.57,3.98-4.35,6.31-5.38,16.24-9.87,32.7-10.69,52.05Z"/><path class="cls-2" d="m578.87,51.03c-1.85,10.14-3.63,19.92-5.47,29.99,5.51,2.61,11.03,2.56,16.33,3.32,8.72,1.26,17.5,2.14,26.23,3.41,9.95,1.44,13.83,6.53,12.45,16.53-.51,3.7-1.7,7.37-3,10.89-1.85,5-5.46,8.31-10.65,9.93-10.1,3.15-20.43,4.76-31,4.96-6.25.11-12.5.23-19.45.36-3.28,10.54-3.32,20.8-3.43,31.93,3.9.34,7.12.79,10.34.88,20.16.53,40.32.97,60.48,1.48,2.1.05,4.19.29,6.28.49,8.12.78,13.58,5.3,14.88,13.1,1.23,7.38,1.61,15.1.94,22.54-.74,8.18-5.9,13.82-14.13,15.82-3.64.88-7.47,1.56-11.18,1.41-24.34-1.02-48.67-2.31-73-3.46-3.75-.18-7.61-.61-11.24.05-7.82,1.43-15.01-1.02-22.25-2.93-7.17-1.89-11.35-7-12.58-14.26-.7-4.12-1.22-8.34-1.19-12.51.19-34.46.44-68.91.84-103.37.15-13.03.55-26.06,1.25-39.06.4-7.53,1.08-15.13,2.56-22.51,2.46-12.24,9.03-18.2,21.36-19.67,5.36-.64,10.89-.28,16.32.03,19.29,1.11,38.57,2.39,57.86,3.63,11.32.73,22.64,1.45,33.95,2.3,2.49.19,5.04.61,7.39,1.42,9,3.09,12.18,9.14,10.02,18.53-.56,2.45-.95,4.94-1.49,7.39-2.39,10.78-8.77,16.71-19.77,18.09-3.32.42-6.72.35-10.07.3-15.94-.28-31.89-.64-49.57-1Z"/><g><path class="cls-13" d="m82.14,259.15c-1.52.15-2.89-.25-4.12-1.19-1.52-1.08-2.3-2.28-2.33-3.58-.04-1.3-.78-2.53-2.22-3.69-3.62-2.82-8.21-2.31-13.78,1.52-5.57,3.83-3.25,6.8,6.94,8.89,1.08.22,2.28.45,3.58.71,1.3.25,2.64.49,4.01.71,16.63,2.89,29.76,7.85,39.38,14.86,11.86,8.68,18.67,20.01,20.45,34.01,1.77,13.99-2.12,26.52-11.66,37.59-11.28,13.09-26.56,20.59-45.83,22.51-19.27,1.92-35.92-2.12-49.95-12.09-12.08-8.46-19.63-19.13-22.67-32-1.3-6.07,1.74-10.77,9.11-14.1,3.25-1.52,6.85-2.6,10.79-3.25,3.94-.65,7.72-1.01,11.34-1.08,5.93,0,11.28.7,16.05,2.11,4.77,1.41,7.48,3.42,8.14,6.02.07.51.25,1.01.54,1.52.8,1.81,2.31,3.15,4.56,4.01,2.67,1.08,5.8.92,9.38-.49s4.61-3.81,3.09-7.21c-.8-1.59-2.97-2.89-6.51-3.91-8.46-2.46-16.89-4.32-25.27-5.59-8.39-1.26-16.34-4.68-23.86-10.25-5.42-3.91-9.67-9.26-12.75-16.05-3.07-6.8-4.11-15.8-3.09-27.01,1.45-15.11,8.71-27.55,21.8-37.31,7.66-5.71,16.42-9.53,26.25-11.44,9.83-1.92,19.38-1.92,28.64,0,9.26,1.92,17.59,5.75,25,11.5,7.41,5.75,12.53,13.4,15.35,22.94,1.08,3.69.05,6.85-3.09,9.49-3.15,2.64-7.07,4.83-11.77,6.56-4.7,1.74-9.51,3.04-14.43,3.91-4.92.87-8.61,1.34-11.06,1.41Z"/><path class="cls-13" d="m209.49,211.96c.36,3.4.63,9.73.81,18.98.18,9.26.34,18.87.49,28.85.14,9.98.31,19,.49,27.06.18,8.06.45,12.6.81,13.61.51,1.66,2.91,2.59,7.21,2.77,4.3.18,9.11.13,14.43-.16,5.32-.29,10.43-.6,15.35-.92,4.92-.33,8.28-.2,10.09.38,2.6.87,4.72,4.65,6.35,11.34,1.63,6.69,2.67,13.92,3.15,21.69.47,7.77.27,14.93-.6,21.48-.87,6.55-2.53,10.11-4.99,10.68-3.69.94-11.05,1.83-22.07,2.66-11.03.83-22.69,1.32-34.98,1.46-12.29.14-23.68-.22-34.17-1.08-10.49-.87-16.96-2.6-19.42-5.21-2.46-2.6-4.36-11.03-5.69-25.27-1.34-14.25-2.24-29.9-2.71-46.97-.47-17.07-.65-33.3-.54-48.7.11-15.4.45-25.6,1.03-30.59.29-2.96,3.8-5.13,10.52-6.51,6.73-1.37,14.06-2.08,22.02-2.12,7.95-.04,15.28.53,21.97,1.68,6.69,1.16,10.18,2.78,10.47,4.88Z"/><path class="cls-13" d="m347.14,366.54c-1.52,2.89-9.08,4.61-22.67,5.15-13.6.54-23.21-.38-28.85-2.77-2.53-1.08-4.92-8.53-7.16-22.35-2.24-13.81-4.16-29.32-5.75-46.54-1.59-17.21-2.75-33.79-3.47-49.74-.72-15.95-.76-26.59-.11-31.95.51-4.41,4.57-7.76,12.2-10.03,7.63-2.28,15.98-3.54,25.06-3.8,9.07-.25,17.39.49,24.95,2.22,7.56,1.74,11.55,4.45,11.99,8.14,1.16,10.41,1.79,23.76,1.9,40.03.11,16.27-.16,32.33-.81,48.16-.65,15.84-1.63,29.83-2.93,41.98-1.3,12.15-2.75,19.31-4.34,21.48Z"/><path class="cls-13" d="m478.28,262.4c-3.18.15-6.35.33-9.49.54-3.15.22-6.2.58-9.17,1.09-7.59,1.52-14.48,5.12-20.66,10.79-6.18,5.68-8.44,12.71-6.78,21.1.8,3.83,2.6,6.83,5.42,9,4.48,3.54,10.45,5.23,17.9,5.04,7.45-.18,13.88-.88,19.31-2.11,3.04-1.01,6-.87,8.89.43,2.67,1.3,5.1,3.54,7.27,6.73,3.4,5.21,5.73,12.15,7,20.83,1.26,8.68.78,15.84-1.46,21.48-1.81,4.63-4.56,7.38-8.24,8.24-11.86,4.34-24.91,6.45-39.16,6.35-14.25-.11-27.01-2.73-38.29-7.86-15.26-6.87-26.94-16.99-35.04-30.37-8.1-13.38-11.32-28.64-9.65-45.78,2.82-27.12,13.56-48.31,32.22-63.57,18.66-15.26,41.87-21.4,69.64-18.44,4.63.51,8.71,2.93,12.26,7.27,3.47,4.34,6.35,11.9,8.62,22.67,2.28,10.78.92,18.66-4.07,23.65-1.88,1.88-4.05,2.86-6.51,2.93Z"/><path class="cls-13" d="m575.8,314.25c12.65-.14,24.08-.5,34.28-1.08,10.2-.58,16.2.11,18.01,2.06,1.95,1.59,3.38,8.5,4.28,20.72.9,12.22.56,21.08-1.03,26.58-.72,2.32-6.4,4.23-17.03,5.75-10.63,1.52-22.56,2.55-35.8,3.09-13.23.54-25.93.63-38.07.27-12.15-.36-20.07-1.34-23.76-2.93-2.17-.87-3.96-6.71-5.37-17.52-1.41-10.81-2.51-23.47-3.31-37.97-.8-14.5-1.27-29.29-1.41-44.37-.14-15.08,0-27.35.43-36.83,0-5.21.43-9.96,1.3-14.26.87-4.3,2.21-7,4.01-8.08,1.81-1.08,8.17-2.02,19.09-2.82,10.92-.79,22.71-1.28,35.36-1.46,12.65-.18,24.37.04,35.15.65,10.77.62,16.96,1.72,18.55,3.31,1.95,1.59,3.05,7.86,3.31,18.82.25,10.96-.42,19.22-2.01,24.79-.8,2.6-5.88,4.21-15.24,4.83-9.37.62-20.3,1.14-32.81,1.57,0,.87.04,1.88.11,3.04.07,1.16.14,2.17.22,3.04,8.17.15,14.82.76,19.96,1.84,1.23.36,2.44,2.51,3.63,6.45,1.19,3.94,2.02,8.24,2.49,12.91.47,4.66.45,8.99-.05,12.96-.51,3.98-1.77,6.11-3.8,6.4-1.45.43-4.07.81-7.86,1.14-3.8.33-8.01.56-12.64.71v6.4Z"/></g><g><path class="cls-8" d="m528.12,98.78c-.07.23-.14.47-.21.7-1.81,6.02-4.42,11.86-7.78,17.44-.89,1.48-1.83,2.94-2.82,4.38l-6.81,9.85-4.41,6.37-4.67,6.76-.5.72-14.28,20.66-21.02,30.4-8.8,12.72c-2.66,3.85-6.59,6.57-11.05,7.72-.94.24-1.89.41-2.87.51-2.85.29-5.69-.06-8.34-.98-2.57-.9-4.94-2.34-6.96-4.27l-1.07-1.02-75.84-72.45c-6.22-5.94-11.31-12.63-15.14-19.86-3.42-6.5-5.77-13.23-7.02-20.01-2.63-14.13-.55-28.44,6.27-41.16,9.17-17.11,25.33-28.41,43.23-30.23,10.03-1.02,20.25,1.07,29.55,6.06,6.47,3.47,12.5,8.29,18.01,14.38,4.17-7.08,9.1-13.01,14.74-17.72,8.11-6.77,17.69-10.88,27.72-11.9,17.9-1.83,36.01,5.98,48.44,20.88,13.68,16.39,17.91,38.28,11.61,60.06Z"/><g class="cls-11"><path class="cls-1" d="m456.25,209.57c-2.64,3.43-6.33,5.85-10.48,6.92-.94.24-1.89.41-2.87.51-2.85.29-5.69-.06-8.34-.98-2.57-.9-4.94-2.34-6.96-4.27l-1.07-1.02-75.84-72.45c-6.22-5.94-11.31-12.63-15.14-19.86-3.42-6.5-5.77-13.23-7.02-20.01-2.63-14.13-.55-28.44,6.27-41.16,3.21-5.98,7.26-11.24,11.95-15.65-3.31,3.65-6.23,7.78-8.66,12.31-6.82,12.72-8.9,27.03-6.27,41.16,1.26,6.78,3.6,13.51,7.02,20.01,3.82,7.24,8.91,13.92,15.14,19.86l75.84,72.45,1.07,1.02c2.02,1.93,4.4,3.37,6.96,4.27,2.64.92,5.48,1.27,8.34.98.98-.1,1.93-.27,2.87-.51,2.63-.68,5.08-1.9,7.19-3.58Z"/></g><g class="cls-9"><path class="cls-4" d="m528.12,98.78c-.07.23-.14.47-.21.7-1.78,2.45-5.44,3.34-8.34,2.27-3.25-1.19-5.51-4.32-6.42-7.65-.91-3.34-.66-6.88-.15-10.3.67-4.49,1.61-9.63-1.32-13.09-1.22-1.43-2.94-2.32-4.43-3.48-4.7-3.66-6.7-9.69-9.19-15.1-2.49-5.42-6.43-11.03-12.33-11.89-5.39-.78-10.91-3.91-16.34-3.58-5.43.33-11.08,3.94-11.84,9.33-.47,3.36.98,6.74.66,10.12-.33,3.37-2.56,6.49-5.65,7.88-3.08,1.39-6.9,1-9.64-.99,1.08,5.88-3.39,13.18-8.72,15.89-5.33,2.71-12.38,1.49-16.49-2.85-5.4-5.69-5.11-14.62-8.35-21.76-4.3-9.48-15.59-15.2-25.78-13.06-3.91.24-8.24.82-11.76,2.55-3.52,1.73-6.43,5.3-6.14,9.21.14,1.79.92,3.5.97,5.3.07,2.23-1.08,4.46-2.94,5.7-1.86,1.24-4.36,1.44-6.4.52-3.4-1.54-7.68,3.7-7.81,7.42-.05,1.38.25,2.9-.54,4.04-.81,1.15-2.41,1.38-3.82,1.43-1.41.04-2.97.06-4.02,1.01-.73,2.58-.49,5.28-.24,7.95.25,2.67.59,5.37.18,8.03-.4,2.66-1.66,5.31-3.94,6.74-2.27,1.42-5.65,1.22-7.28-.91-.45-.59-.9-1.19-1.32-1.79-2.63-14.13-.55-28.44,6.27-41.16,9.17-17.11,25.33-28.41,43.23-30.23,10.03-1.02,20.25,1.07,29.55,6.06,6.47,3.47,12.5,8.29,18.01,14.38,4.17-7.08,9.1-13.01,14.74-17.72,8.11-6.77,17.69-10.88,27.72-11.9,17.9-1.83,36.01,5.98,48.44,20.88,13.68,16.39,17.91,38.28,11.61,60.06Z"/></g><path class="cls-4" d="m443.05,218.53c-6.08.62-12.1-1.45-16.52-5.67l-76.9-73.47c-6.34-6.06-11.54-12.88-15.43-20.26-10.81-20.51-11.08-43.33-.75-62.61,9.41-17.56,26.02-29.16,44.42-31.04,10.34-1.05,20.86,1.1,30.43,6.24,6.06,3.25,11.78,7.69,17.03,13.2,4.03-6.46,8.74-11.96,14.02-16.36,8.34-6.96,18.21-11.2,28.55-12.26,18.41-1.88,37.02,6.13,49.78,21.43,14.01,16.79,18.35,39.2,11.91,61.47-2.32,8.02-6.03,15.75-11.02,22.96l-60.48,87.48c-3.48,5.03-8.96,8.26-15.03,8.89ZM378.19,28.54c-17.39,1.77-33.1,12.78-42.03,29.44-9.84,18.36-9.57,40.13.76,59.73,3.74,7.09,8.73,13.64,14.84,19.47l76.9,73.47c3.77,3.6,8.9,5.36,14.09,4.83s9.86-3.29,12.82-7.58l60.48-87.48c4.8-6.94,8.37-14.37,10.6-22.07,6.16-21.27,2.03-42.65-11.32-58.65-12.11-14.51-29.72-22.12-47.11-20.34-9.72.99-19.02,4.99-26.89,11.56-5.48,4.58-10.33,10.4-14.4,17.32-.25.42-.68.7-1.17.75s-.97-.14-1.29-.5c-5.39-5.95-11.31-10.68-17.6-14.06-9.03-4.84-18.95-6.88-28.67-5.89Z"/><path class="cls-7" d="m534.77,79.28c-.44.11-.91.19-1.37.24-1.82.19-3.61-.14-5.21-.85-3.16-1.41-5.6-4.34-6.14-7.91-.53-3.54-1.39-6.95-2.53-10.18,0-.02-.01-.04-.02-.06-3.16-8.89-8.49-16.52-15.1-22.33-15.59-13.7-38.33-17.33-56.61-3.72-5.01,3.73-9.68,8.75-13.78,15.21-.92,1.45-2.13,2.58-3.49,3.37-2.59,1.52-5.76,1.84-8.6.87-1.49-.5-2.9-1.36-4.09-2.59-.89-.93-1.8-1.81-2.71-2.64-.52-.48-1.04-.95-1.57-1.4-1.37-1.18-2.75-2.27-4.14-3.27-.42-.3-.84-.59-1.26-.88-18.36-12.4-38.34-9.46-52.64,1.94-6.9,5.5-12.48,12.96-15.92,21.63-2.8,7.03-4.19,14.85-3.73,23.04.3,5.43-3.93,10.32-9.34,10.88-4.91.5-9.34-2.49-10.89-6.91-.27-.76-.45-1.56-.54-2.39-.02-.16-.03-.32-.04-.47-.77-13.63,2.15-27.17,8.76-39.5,11.13-20.77,30.93-34.51,52.96-36.76,12.51-1.28,25.21,1.31,36.72,7.48,1.66.89,3.3,1.86,4.91,2.89,3.07,1.97,7.12,1.56,9.72-.99,1.37-1.34,2.77-2.61,4.22-3.82,10.03-8.37,21.94-13.46,34.45-14.74,22.03-2.25,44.2,7.21,59.3,25.31,4.87,5.83,8.74,12.23,11.58,19.02,2.39,5.72,4.06,11.72,4.97,17.89.8,5.41-2.71,10.42-7.88,11.65Z"/><g class="cls-11"><path class="cls-1" d="m542.74,69.85c-2.26-12.68-7.72-24.56-16.19-34.71-15.1-18.09-37.27-27.55-59.3-25.31-12.51,1.28-24.43,6.37-34.45,14.74-1.45,1.21-2.85,2.48-4.22,3.82-2.61,2.55-6.65,2.97-9.72.99-1.61-1.03-3.24-1.99-4.91-2.89-11.51-6.17-24.2-8.76-36.72-7.48-22.03,2.25-41.83,15.99-52.96,36.76-6.25,11.66-9.2,24.4-8.85,37.28-.16-.55-.27-1.13-.33-1.72-.02-.16-.03-.32-.04-.47-.77-13.63,2.15-27.17,8.76-39.5,11.13-20.77,30.93-34.51,52.96-36.76,12.51-1.28,25.21,1.31,36.72,7.48,1.66.89,3.3,1.86,4.91,2.89,3.07,1.97,7.12,1.56,9.72-.99,1.37-1.34,2.77-2.61,4.22-3.82,10.03-8.37,21.94-13.46,34.45-14.74,22.03-2.25,44.2,7.21,59.3,25.31,8.96,10.74,14.55,23.41,16.55,36.92.11.75.14,1.49.09,2.21Z"/></g><path class="cls-4" d="m533.55,81.05c-6.26.64-12.1-3.88-13.02-10.07-3.16-21.26-18.69-38.39-38.65-42.62-18.22-3.86-35.19,4.2-46.58,22.14-1.96,3.09-5.18,5.07-8.84,5.45s-7.21-.92-9.75-3.55c-14.77-15.26-33.03-19.74-50.09-12.28-18.69,8.17-30.44,28.09-29.25,49.55.35,6.25-4.46,11.85-10.72,12.49-3.28.33-6.47-.66-8.97-2.8-2.51-2.14-3.99-5.12-4.17-8.41-.79-13.99,2.3-27.93,8.94-40.31,11.37-21.22,31.62-35.26,54.16-37.56,12.82-1.31,25.83,1.34,37.6,7.66,1.69.91,3.38,1.9,5.01,2.95,2.45,1.57,5.74,1.24,7.82-.8,1.39-1.36,2.84-2.67,4.31-3.9,10.26-8.56,22.46-13.78,35.28-15.09,22.54-2.3,45.2,7.36,60.63,25.85,9,10.78,14.84,23.81,16.89,37.67.48,3.26-.37,6.48-2.39,9.08-2.02,2.6-4.94,4.22-8.22,4.55Zm-64.79-56.45c4.53-.46,9.16-.21,13.76.76,9.92,2.1,19.41,7.57,26.72,15.39,7.7,8.23,12.65,18.53,14.32,29.78.67,4.51,5.1,7.93,9.67,7.46h0c2.44-.25,4.61-1.45,6.11-3.38,1.5-1.93,2.13-4.33,1.77-6.75-1.97-13.3-7.58-25.81-16.21-36.16-14.77-17.7-36.44-26.96-57.96-24.76-12.21,1.25-23.84,6.22-33.63,14.39-1.41,1.18-2.8,2.44-4.13,3.74-3.14,3.08-7.93,3.57-11.63,1.19-1.57-1.01-3.18-1.96-4.8-2.83-11.23-6.03-23.63-8.55-35.84-7.31-21.52,2.2-40.87,15.64-51.77,35.96-6.37,11.88-9.34,25.26-8.58,38.69.14,2.44,1.24,4.66,3.1,6.25,1.86,1.59,4.23,2.33,6.67,2.08,4.57-.47,8.22-4.71,7.97-9.26-.63-11.36,2.14-22.45,8.02-32.06,5.58-9.13,13.77-16.4,23.07-20.47,8.47-3.7,17.62-4.69,26.46-2.84,9.79,2.04,18.9,7.36,27.07,15.8,1.89,1.95,4.52,2.91,7.24,2.63,2.71-.28,5.1-1.75,6.56-4.04,6.3-9.92,14.14-16.96,23.32-20.94,4.07-1.76,8.35-2.87,12.73-3.32Z"/><path class="cls-14" d="m355.5,45.08c-.3,1.85-.28,3.74.12,5.58.33,1.54.89,3.05.94,4.63.04,1.58-.59,3.31-2.01,3.99-1.93.93-4.44-.42-6.3.65-1.07.61-1.59,1.83-2.3,2.84-1.43,2.05-3.78,3.3-6.2,3.9-.06.01-.11.03-.17.04-2.37.56-4.84.58-7.28.59l3.44-5.84,16.31-27.72,13.41-1.37c-5.27,2.05-9.06,7.17-9.96,12.72Z"/><path class="cls-4" d="m365.61,32.75c-2.03,1.13-3.77,2.62-5.14,4.38-1.34,1.78-2.37,3.77-2.95,5.87-.12.53-.28,1.05-.35,1.58-.04.27-.1.53-.13.79l-.07.8-.04.4v.4s-.01.8-.01.8c0,.26.04.53.05.79.02.26.02.53.08.79.08.52.14,1.03.29,1.58l.42,1.75c.14.62.26,1.28.32,1.98.03.35.04.72.02,1.1-.02.38-.07.75-.15,1.13-.16.75-.45,1.49-.92,2.19-.46.69-1.17,1.33-2.01,1.67-.83.35-1.66.43-2.36.43-.71,0-1.32-.07-1.87-.09-.54-.03-1,0-1.32.08-.33.09-.49.18-.73.43-.23.25-.5.65-.8,1.15-.15.25-.31.52-.5.81-.2.29-.42.59-.65.85-.93,1.1-2.08,1.94-3.28,2.56-1.21.62-2.5,1.02-3.78,1.25-1.28.23-2.56.26-3.79.16-1.24-.11-2.44-.32-3.63-.68h0c-.23-.07-.36-.31-.29-.54.04-.14.16-.25.29-.29,2.38-.72,4.69-1,6.76-1.61,2.06-.55,3.95-1.58,5.17-3.02.16-.18.29-.36.43-.56.14-.2.29-.44.45-.69.33-.51.7-1.12,1.31-1.72.3-.29.67-.58,1.08-.8.41-.21.85-.37,1.27-.46.84-.17,1.58-.14,2.23-.09.64.05,1.21.12,1.69.13.48.01.86-.04,1.13-.15.27-.1.48-.28.69-.57.2-.28.35-.67.43-1.08.04-.21.07-.42.07-.64,0-.21,0-.43-.03-.68-.04-.48-.16-.99-.29-1.52l-.47-1.71c-.17-.6-.27-1.27-.38-1.92-.4-2.62.02-5.29.9-7.71.1-.31.25-.6.37-.89.13-.29.24-.6.4-.88.31-.56.6-1.14.97-1.66.67-1.09,1.52-2.05,2.41-2.95,1.82-1.76,4.05-3.08,6.43-3.73.22-.06.45.07.51.29.05.19-.04.38-.2.47h-.01Z"/><path class="cls-7" d="m456.26,23.4c-3.99,2.57-6.99,6.57-8.47,11.07-.64,1.94-1,3.97-1.03,6.01-.05,3,.56,6.02.1,8.98-.45,2.97-2.41,6.03-5.38,6.43-1.56.21-3.24-.31-4.64.39-2.34,1.18-2.04,4.6-3.36,6.86-1.53,2.59-5.23,3.24-7.99,2.05-2.76-1.2-4.67-3.78-5.99-6.48-1.33-2.7-1.63-4.49-3.05-7.14-.45-.84-1.15-1.8-1.99-2.79-1.45-1.71-3.32-3.48-5.05-4.78-.43-.32-.85-.62-1.26-.88l33.34-13.67,14.78-6.06Z"/><path class="cls-4" d="m408.96,41.84c1.7,1.09,3.15,2.35,4.54,3.69,1.37,1.35,2.66,2.77,3.79,4.48.58.91.99,1.77,1.39,2.67.39.9.72,1.8,1.04,2.64.63,1.68,1.33,3.26,2.26,4.67.91,1.41,2.04,2.63,3.35,3.4.68.39,1.33.64,2.05.77.72.11,1.47.1,2.17-.05.7-.15,1.34-.45,1.84-.85.51-.42.83-.89,1.11-1.6.28-.72.47-1.57.74-2.51.13-.47.29-.97.51-1.49.21-.51.52-1.07.95-1.57.42-.52,1.01-.94,1.62-1.23.63-.29,1.29-.41,1.86-.45,1.15-.07,2.07.06,2.78,0,.18,0,.33-.03.49-.07.16-.02.3-.07.45-.12.15-.04.29-.13.44-.18.14-.09.29-.15.42-.26.55-.38,1.04-.92,1.43-1.56.39-.64.69-1.35.89-2.1.09-.38.17-.73.22-1.14.06-.4.08-.81.1-1.23.06-1.68-.12-3.47-.17-5.38-.03-.95-.02-1.95.08-2.94.03-.5.13-.98.19-1.47.08-.49.2-.97.29-1.45.46-1.92,1.2-3.75,2.15-5.45,1.91-3.38,4.73-6.24,8.09-7.99.2-.11.46-.03.56.18.09.18.04.4-.11.52h0c-5.68,4.51-8.79,11.6-8.12,18.45.13,1.77.35,3.65.27,5.67-.03.5-.06,1.01-.13,1.52-.06.51-.18,1.06-.32,1.57-.3,1.03-.74,2.02-1.33,2.95-.59.92-1.37,1.77-2.34,2.43-.95.68-2.2,1.07-3.37,1.14-1.13.05-2.05-.08-2.74-.02-.35.02-.61.09-.81.18-.2.11-.4.22-.56.43-.34.38-.62,1.09-.85,1.92-.24.82-.45,1.78-.83,2.78-.37,1.01-1.09,2.13-2.03,2.87-.94.75-2.02,1.23-3.12,1.47-1.1.24-2.23.26-3.33.08-1.1-.18-2.19-.61-3.1-1.15-1.87-1.11-3.28-2.7-4.37-4.38-1.09-1.68-1.89-3.49-2.55-5.26-.33-.88-.63-1.71-.98-2.51-.34-.78-.74-1.59-1.15-2.23-.9-1.38-2.1-2.72-3.35-3.94-1.26-1.22-2.62-2.39-4.03-3.29h-.02c-.71-.47-.92-1.41-.47-2.13.46-.71,1.4-.92,2.12-.47h0Z"/><path class="cls-4" d="m416.34,21.92c.48.36.89.69,1.3,1.05.41.35.81.71,1.21,1.07.39.37.77.74,1.16,1.11.37.39.75.76,1.11,1.15,1.46,1.56,2.79,3.22,3.99,4.97.62.86,1.16,1.78,1.72,2.67l.76,1.39c.12.23.26.46.37.7l.34.72c.95,1.89,1.63,3.89,2.24,5.9.07.22-.06.45-.28.52-.21.06-.43-.04-.51-.24v-.02c-.78-1.9-1.6-3.77-2.68-5.5l-.39-.66c-.13-.22-.28-.42-.42-.64l-.85-1.26c-.62-.81-1.2-1.63-1.87-2.4-1.3-1.55-2.7-3.02-4.2-4.36l-1.14-.99c-.39-.32-.78-.63-1.17-.94-.4-.3-.79-.61-1.2-.89-.4-.28-.83-.57-1.2-.8l-.03-.02c-.72-.45-.95-1.39-.5-2.11.45-.72,1.39-.95,2.11-.5.04.02.08.05.11.08Z"/><path class="cls-7" d="m539.16,92.92c-.56,1.92-2.14,3.45-3.99,4.2-1.86.75-3.95.76-5.89.3-2.03-.49-3.92-1.51-5.47-2.9-1.3-1.17-2.37-2.6-3.09-4.2-2.07-4.61-1.22-9.94-.36-14.93.84-4.96.93-9.59-.82-14.81,0-.02-.01-.04-.02-.06l7.87,5,3.96,2.52c.79,3.85,1.94,7.62,3.44,11.25.65,1.57,1.36,3.12,2.13,4.64,1.44,2.83,3.15,5.95,2.26,8.99Z"/><path class="cls-4" d="m520.96,60.02c.56,1.67.98,3.39,1.23,5.14.24,1.75.32,3.52.25,5.27-.07,1.75-.29,3.47-.57,5.17-.28,1.64-.55,3.26-.72,4.86-.34,3.18-.28,6.36.9,9.07,1.15,2.67,3.46,4.88,6.19,5.93,1.36.52,2.83.78,4.23.67,1.4-.11,2.68-.6,3.65-1.46.49-.42.88-.93,1.16-1.47.27-.54.42-1.11.45-1.74.07-1.24-.34-2.64-.97-4.06-.3-.71-.66-1.44-1.03-2.18-.37-.74-.75-1.53-1.09-2.31-.7-1.56-1.34-3.15-1.87-4.77-1.06-3.25-1.75-6.62-1.84-10.04,0-.23.18-.43.41-.43.18,0,.34.1.4.26h0c1.27,3.12,2.43,6.18,3.75,9.18.65,1.5,1.31,2.99,2.04,4.44.37.73.74,1.43,1.13,2.18.39.74.79,1.51,1.16,2.33.36.82.69,1.68.93,2.62.24.93.37,1.95.3,3-.07,1.04-.35,2.11-.86,3.05-.51.94-1.19,1.74-1.97,2.4-.79.65-1.68,1.17-2.63,1.52-.94.35-1.92.54-2.89.61-1.94.13-3.83-.24-5.58-.93-3.48-1.38-6.39-4.12-7.88-7.58-.74-1.72-1.14-3.54-1.27-5.34-.15-1.8-.05-3.56.13-5.28.18-1.72.47-3.4.74-5.05.26-1.6.47-3.19.53-4.78.07-1.59,0-3.16-.22-4.72-.22-1.55-.6-3.09-1.1-4.59h0c-.27-.81.17-1.68.97-1.95s1.67.17,1.94.97Z"/><path class="cls-5" d="m510.74,132.38c1.04,4.98,2.6,9.94,2.36,15.02-.07,1.52-.32,3.07-1.08,4.37-.76,1.31-2.12,2.35-3.63,2.4-2.22.08-3.99-1.89-4.86-3.94-.55-1.3-.87-2.68-1.31-4.02-.21-.67-.47-1.32-.79-1.94-.05-.1-.1-.19-.15-.28-1.73-3.06-5.48-4.84-8.94-4.24l10.34-12.09,8.78-10.26c-2.05,4.2-1.81,9.1-.95,13.73.08.41.15.82.24,1.23Z"/><path class="cls-4" d="m511.83,117.6c-.8,2.46-.96,4.99-.78,7.5.19,2.52.72,5.01,1.33,7.52.62,2.52,1.33,5.09,1.81,7.78.47,2.69.71,5.48.37,8.37-.19,1.46-.61,3.03-1.63,4.42-.51.68-1.14,1.27-1.9,1.73-.75.46-1.66.77-2.62.81-.95.04-1.89-.21-2.69-.62-.79-.41-1.45-.96-2-1.56-.55-.6-1-1.25-1.37-1.95-.37-.71-.64-1.4-.86-2.07-.44-1.34-.73-2.6-1.13-3.69-.19-.55-.42-1.05-.69-1.5-.28-.46-.6-.89-.98-1.3-1.52-1.61-3.75-2.73-6.29-2.87h-.01c-.23-.01-.41-.21-.4-.45,0-.17.12-.31.27-.37.66-.25,1.38-.41,2.1-.47.73-.05,1.47.01,2.2.14.73.15,1.44.38,2.13.7.68.32,1.33.73,1.93,1.22.6.49,1.13,1.06,1.6,1.7.46.65.83,1.34,1.12,2.01.58,1.37.91,2.68,1.3,3.85.2.58.39,1.14.63,1.6.24.48.52.93.86,1.31.33.38.7.7,1.07.91.38.2.74.3,1.12.31.36,0,.75-.12,1.13-.34.38-.22.72-.55,1-.93.55-.76.87-1.82,1-2.97.07-.58.08-1.19.09-1.8,0-.61-.03-1.23-.08-1.85-.1-1.24-.28-2.49-.52-3.74-.46-2.51-1.09-5.06-1.59-7.7-.51-2.64-.82-5.4-.66-8.17.15-2.75.85-5.58,2.39-7.88.13-.19.39-.24.58-.12.16.11.22.3.17.48h0Z"/><path class="cls-5" d="m486.64,165.66c1.16,4.26,1.56,9.43-1.78,12.25-1.24,1.04-2.89,1.63-3.8,2.96-1.19,1.75-.7,4.1-1.04,6.19-.64,3.9-4.24,6.74-8.01,7.92-2.07.65-4.22.91-6.39,1.08-1.78.14-3.58.22-5.35.4-3.94.39-8.06,1.39-10.83,4.21l4.73-6.29,23.99-31.92,7.75-10.31c-2.2,3.93-.61,8.79.62,13.12.04.13.07.26.11.39Z"/><path class="cls-4" d="m486.27,152.35c-1.01,2.8-.41,5.66.42,8.48l.69,2.14c.23.73.49,1.43.72,2.2.24.77.44,1.56.61,2.36.15.81.29,1.62.35,2.46.13,1.67.03,3.43-.54,5.18-.29.87-.73,1.71-1.28,2.49-.31.36-.59.75-.95,1.06-.34.33-.71.64-1.08.89-.72.5-1.4.87-1.93,1.24-.54.38-.89.72-1.1,1.13-.22.42-.34.98-.4,1.64-.06.66-.05,1.41-.09,2.23-.02.41-.05.84-.11,1.29-.02.22-.08.45-.13.68-.04.23-.1.45-.17.67-.25.89-.65,1.73-1.13,2.49-.97,1.53-2.28,2.76-3.72,3.71-1.44.94-3.04,1.63-4.66,2.08-1.61.42-3.23.66-4.81.78-3.17.26-6.2.16-9.1.52-2.91.34-5.76,1.09-8.14,2.9h0c-.18.15-.45.11-.59-.08-.12-.15-.11-.36,0-.51.49-.64,1.06-1.23,1.69-1.75.63-.51,1.32-.97,2.04-1.36,1.44-.78,2.99-1.31,4.56-1.69,1.57-.37,3.16-.6,4.7-.75,1.55-.17,3.06-.28,4.54-.46.74-.1,1.46-.19,2.17-.32.71-.13,1.4-.29,2.08-.47,1.35-.36,2.6-.9,3.73-1.64,1.12-.74,2.13-1.63,2.82-2.69.35-.52.63-1.08.81-1.67.18-.58.27-1.17.31-1.89.04-.71.04-1.5.12-2.37.09-.86.27-1.84.77-2.79.25-.46.57-.91.93-1.28.35-.37.73-.67,1.08-.93.72-.52,1.39-.9,1.92-1.28.27-.19.48-.38.69-.59.23-.19.38-.44.57-.66.32-.49.59-1.03.77-1.62.17-.6.31-1.23.34-1.9.04-.33.03-.67.05-1.01-.02-.34,0-.68-.04-1.03-.08-1.39-.33-2.82-.67-4.24-.34-1.45-.75-2.98-1.01-4.55-.13-.79-.26-1.58-.3-2.4-.04-.4-.03-.82-.04-1.23.01-.42.02-.82.07-1.24.14-1.65.71-3.32,1.7-4.62.14-.18.4-.22.59-.08.15.11.2.31.14.48h0Z"/><path class="cls-5" d="m342.62,121.57c6.16,6.62,1.37,18.89,7.59,25.44,3.3,3.48,8.56,4.03,13.35,4.3,4.79.27,10.01.63,13.53,3.89"/><g class="cls-11"><path class="cls-1" d="m377.08,155.21c-3.51-3.26-8.74-3.63-13.53-3.89-4.79-.27-10.05-.82-13.35-4.3-6.23-6.56-1.43-18.82-7.59-25.44l2.4,2.34c2.99,2.92,4.86,6.79,5.35,10.95.4,3.39,1.2,6.58,3.49,9,3.3,3.48,8.56,4.03,13.35,4.3h.03c1.8.11,3.5.86,4.79,2.12l5.06,4.94Z"/></g><path class="cls-4" d="m342.92,121.29c.97.75,1.78,1.73,2.42,2.81.64,1.08,1.1,2.25,1.46,3.43.34,1.18.6,2.38.77,3.56.19,1.18.32,2.36.44,3.51.24,2.3.4,4.55.9,6.62.49,2.06,1.41,3.92,2.92,5.22,1.48,1.32,3.46,2.07,5.57,2.51,2.12.44,4.35.62,6.66.83,2.33.21,4.74.5,7.1,1.23l.88.3.87.34.84.4.82.45c1.06.65,2.05,1.45,2.8,2.41.14.18.11.45-.07.59-.15.12-.35.12-.5.02-1.89-1.26-4-1.88-6.18-2.2-2.18-.32-4.44-.36-6.75-.42-2.33-.05-4.76-.2-7.2-.77-1.21-.28-2.43-.68-3.61-1.23-1.18-.55-2.31-1.27-3.3-2.17-1-.9-1.83-1.97-2.48-3.12-.65-1.15-1.12-2.37-1.46-3.58-.69-2.44-.89-4.86-1.01-7.19-.11-2.33-.12-4.6-.42-6.79-.27-2.19-.86-4.28-2.09-6.19h0c-.13-.2-.07-.46.12-.59.15-.1.35-.09.49.02Z"/><path class="cls-5" d="m390.34,165.25c3.91,4.02,4.43,10.2,4.16,15.81-.27,5.6-1.07,11.43.95,16.66.96,2.49,3.19,5.02,5.8,4.49,2.52-.51,3.62-3.51,3.79-6.07.21-3.21-.32-6.43-.35-9.65-.03-3.22.54-6.62,2.6-9.1"/><g class="cls-11"><path class="cls-1" d="m403.18,201.12c-.52.54-1.15.92-1.92,1.08-2.61.53-4.84-2-5.8-4.49-2.01-5.24-1.22-11.06-.95-16.66.27-5.6-.26-11.78-4.16-15.81l.72.51c4.54,3.25,7.17,8.57,6.92,14.15,0,.03,0,.07,0,.1-.27,5.6-1.07,11.43.95,16.66.76,1.98,2.33,3.99,4.26,4.46Z"/></g><path class="cls-4" d="m390.64,164.96c1.19.91,2.17,2.11,2.93,3.43.77,1.32,1.3,2.76,1.7,4.22.37,1.47.61,2.95.72,4.44.06.74.09,1.48.11,2.22,0,.74,0,1.48-.02,2.2-.03,1.45-.13,2.88-.19,4.29-.08,1.41-.13,2.8-.11,4.17.03,1.37.1,2.71.32,4.02.05.33.11.65.18.97.06.32.14.64.23.95.08.32.18.63.29.93.1.32.21.59.33.86.49,1.08,1.25,2.09,2.1,2.64.42.28.84.43,1.24.43.4,0,.8-.1,1.14-.32.7-.43,1.25-1.47,1.53-2.62.14-.58.24-1.18.27-1.8.04-.66.05-1.33.04-2.01-.02-2.71-.33-5.61-.04-8.64.07-.75.18-1.51.36-2.25.17-.74.38-1.48.67-2.2.56-1.43,1.41-2.77,2.55-3.78.17-.15.44-.14.59.04.12.14.14.34.05.49h0c-1.39,2.4-1.69,5.1-1.6,7.8.09,2.7.62,5.48.71,8.48.02.75.01,1.51-.04,2.28-.06.81-.19,1.63-.42,2.43-.23.8-.55,1.6-1.02,2.37-.47.76-1.11,1.52-1.98,2.05-.87.54-1.91.81-2.94.76-1.04-.04-2-.44-2.77-.93-.78-.5-1.41-1.12-1.94-1.78-.53-.66-.97-1.37-1.32-2.12-.18-.38-.34-.77-.46-1.13-.13-.37-.27-.73-.37-1.11-.11-.37-.22-.75-.3-1.12-.09-.38-.18-.75-.24-1.13-.28-1.51-.41-3.02-.43-4.51-.03-1.49.02-2.96.1-4.4l.32-4.27c.19-2.78.28-5.53-.08-8.21-.34-2.68-1.15-5.28-2.78-7.55-.14-.19-.09-.45.09-.59.15-.11.36-.1.5,0Z"/><path class="cls-5" d="m444.67,209.6c.03,1.69.7,3.3.99,4.97.11.62.16,1.28.1,1.92-.09,1.08-.46,2.09-1.26,2.78-1.43,1.22-3.74.99-5.07,2.31-1.28,1.27-1.07,3.4-.51,5.11.56,1.72,1.39,3.47,1.06,5.25-.59,3.12-4.77,4.5-7.64,3.13-2.87-1.36-4.48-4.51-5.19-7.61-.13-.55-.23-1.1-.32-1.65-.67-4.33-.22-8.8-.26-13.2,0-.62-.02-1.25-.06-1.88-.23-4.39-1.23-8.86-4.14-12.08l19.31,5.44,5.47,1.54c-1.65.37-2.52,2.27-2.5,3.97Z"/><path class="cls-4" d="m422.7,198.38c1.41,1.06,2.57,2.51,3.37,4.11.83,1.6,1.36,3.33,1.69,5.06.32,1.74.47,3.49.48,5.22.02,1.72-.07,3.41-.14,5.07-.07,1.66-.08,3.29-.02,4.9.09,1.6.28,3.18.65,4.68.37,1.48.95,2.9,1.77,4.06.41.58.88,1.1,1.4,1.51.52.41,1.12.75,1.67.9,1.16.35,2.59.13,3.59-.5.51-.31.88-.72,1.08-1.17.04-.12.11-.22.13-.35.03-.12.07-.24.08-.37.03-.27.02-.55-.02-.86-.08-.62-.31-1.32-.58-2.08l-.43-1.2c-.15-.43-.29-.92-.4-1.4-.2-.97-.3-2.03-.05-3.2.13-.58.37-1.18.75-1.72.37-.54.88-1,1.4-1.32,1.05-.64,2.01-.82,2.77-1.04.78-.2,1.31-.43,1.61-.68.31-.25.55-.69.67-1.28.12-.59.13-1.27.03-1.97-.1-.73-.27-1.53-.43-2.39-.17-.86-.28-1.8-.21-2.78.08-1.03.4-2,.99-2.82.57-.82,1.51-1.49,2.52-1.54.23-.01.43.17.44.4,0,.17-.09.33-.24.4h-.02c-.65.33-1.04.9-1.28,1.53-.23.64-.3,1.35-.2,2,.08.7.31,1.4.55,2.17.25.76.55,1.57.76,2.49.21.95.3,1.96.14,3.03-.08.53-.23,1.08-.48,1.62-.25.54-.61,1.06-1.07,1.5-.46.44-.99.76-1.49.98-.5.23-.97.37-1.39.5-.84.25-1.54.45-1.92.7-.37.24-.53.49-.66.96-.12.47-.1,1.12.03,1.78.07.34.15.66.27,1.02l.39,1.17c.27.82.57,1.73.68,2.77.06.52.06,1.08-.01,1.64-.03.28-.11.57-.19.85-.07.29-.2.55-.32.82-.51,1.07-1.36,1.9-2.28,2.46-.93.56-1.94.89-2.96,1.03-1.03.13-2.09.08-3.12-.22-1.06-.31-1.94-.83-2.73-1.45-.79-.62-1.45-1.36-2.01-2.15-1.1-1.58-1.79-3.32-2.23-5.09-.85-3.51-.86-7.03-.84-10.39l.02-4.98c-.01-1.62-.05-3.22-.22-4.79-.17-1.57-.4-3.13-.82-4.64-.41-1.52-1.02-2.97-1.82-4.42h0c-.11-.22-.04-.48.17-.59.15-.08.33-.06.46.03Z"/><g class="cls-9"><path class="cls-4" d="m534.77,79.28c.65,1.57,1.36,3.12,2.13,4.64,1.44,2.83,3.15,5.95,2.26,8.99-.56,1.92-2.14,3.45-3.99,4.2-1.86.75-3.95.76-5.89.3-2.03-.49-3.92-1.51-5.47-2.9-1.39-1.91-2.55-4.02-3.5-6.25,2.09,1.39,5.14.4,6.63-1.61,1.5-2.01,1.71-4.72,1.38-7.21-.03-.26-.07-.52-.12-.77-.38-2.21-1.09-4.37-1.44-6.59-.35-2.2-.33-4.57.62-6.56.12-.25.25-.49.41-.73,1.08-1.71,2.85-2.85,4.54-3.96,1.69-1.12,3.13-2.53,4.35-4.14,1.62-2.11,1.86-5.15.21-6.32l.79-.62c2.39,5.72,4.06,11.72,4.97,17.89.8,5.41-2.71,10.42-7.88,11.65Z"/></g><g class="cls-9"><path class="cls-4" d="m504.4,38.19c-15.59-13.7-38.33-17.33-56.61-3.72-.64,1.94-1,3.97-1.03,6.01-.05,3,.56,6.02.1,8.98-.45,2.97-2.41,6.03-5.38,6.43-1.56.21-3.24-.31-4.64.39-2.34,1.18-2.04,4.6-3.36,6.86-1.53,2.59-5.23,3.24-7.99,2.05-2.76-1.2-4.67-3.78-5.99-6.48-1.33-2.7-1.63-4.49-3.05-7.14-.45-.84-1.15-1.8-1.99-2.79.22-.04.44-.08.66-.1.31-.04.62-.07.92-.09,1.46,1.71,2.94,3.44,4.8,4.69.34.23.7.45,1.07.64,1.64.85,3.52,1.27,5.31.87,1.25-.28,2.33-.92,3.3-1.75,1.31-1.11,2.4-2.57,3.41-3.97,1.47-2.04,2.95-4.1,3.85-6.44,1.19-3.1,1.3-6.5,2.24-9.68.36-1.22.85-2.39,1.46-3.5,3.46-6.3,10.6-10.58,17.83-10.25,1.76.08,3.44.52,5.14.09,3.69-.94,7.2-2.54,10.94-3.21,3.75-.67,7.98-.24,10.73,2.39,1.58,1.5,2.53,3.59,4.26,4.92,1.77,1.37,4.1,1.73,6.17,2.61,4.71,2.01,7.87,7.09,7.85,12.17Z"/></g><g class="cls-9"><path class="cls-4" d="m413.55,47.28c-1.37-1.18-2.75-2.27-4.14-3.27-.42-.3-.84-.59-1.26-.88-18.36-12.4-38.34-9.46-52.64,1.94-.3,1.85-.28,3.74.12,5.58.33,1.54.89,3.05.94,4.63.04,1.58-.59,3.31-2.01,3.99-1.93.93-4.44-.42-6.3.65-1.07.61-1.59,1.83-2.3,2.84-1.43,2.05-3.78,3.3-6.2,3.9-.06.01-.11.03-.17.04-2.8,7.03-4.19,14.85-3.73,23.04.3,5.43-3.93,10.32-9.34,10.88-4.91.5-9.34-2.49-10.89-6.91,1.2.64,2.61.92,3.96.75,2.63-.32,4.94-2.12,6.25-4.42,1.31-2.3,1.69-5.04,1.49-7.68-.21-2.64-1.57-5.52-2.11-8.12-.98-4.69,1.84-9.88,6.3-11.63,1.36-.53,2.83-.77,4.24-1.17.2-.06.41-.13.61-.19,1.6-.53,3.18-1.49,3.84-3.03.47-1.1.45-2.41,1.14-3.38.67-.94,1.84-1.34,2.83-1.92,2.48-1.45,3.57-4.46,3.57-7.33,0-4.39,1.84-8.75,4.99-11.82.05-.05.1-.09.15-.14,3.13-2.98,7.46-4.66,11.79-4.57,3.01.07,5.98.96,9,.94,3.31-.03,6.51-1.17,9.72-1.97,3.22-.8,6.72-1.25,9.77.05,1.9.81,3.46,2.23,5.26,3.25,1.97,1.12,4.2,1.73,6.14,2.9,4.62,2.76,6.95,8.07,8.99,13.05Z"/></g><g class="cls-9"><path class="cls-4" d="m517.31,121.3l-6.81,9.85c.08.41.15.82.24,1.23,1.04,4.98,2.6,9.94,2.36,15.02-.07,1.52-.32,3.07-1.08,4.37-.76,1.31-2.12,2.35-3.63,2.4-2.22.08-3.99-1.89-4.86-3.94-.55-1.3-.87-2.68-1.31-4.02,1.58.4,3.33-.74,4.02-2.26.73-1.62.52-3.5.11-5.23-.09-.39-.17-.8-.24-1.22-.24-1.41-.41-2.92-.99-4.16-.86-1.85-1.74-3.75-2.43-5.68-.91-2.53-1.51-5.14-1.37-7.82.16-3.25,1.5-6.5,3.94-8.66,2.44-2.16,6.02-3.08,9.11-2.04,3.08,1.04,5.44,4.17,5.27,7.42.17.11.34.22.52.34-.89,1.48-1.83,2.94-2.82,4.38Z"/></g><g class="cls-9"><path class="cls-4" d="m486.64,165.66c1.16,4.26,1.56,9.43-1.78,12.25-1.24,1.04-2.89,1.63-3.8,2.96-1.19,1.75-.7,4.1-1.04,6.19-.64,3.9-4.24,6.74-8.01,7.92-2.07.65-4.22.91-6.39,1.08l-8.8,12.72c-2.66,3.85-6.59,6.57-11.05,7.72-.09,1.08-.46,2.09-1.26,2.78-1.43,1.22-3.74.99-5.07,2.31-1.28,1.27-1.07,3.4-.51,5.11.56,1.72,1.39,3.47,1.06,5.25-.59,3.12-4.77,4.5-7.64,3.13-2.87-1.36-4.48-4.51-5.19-7.61-.13-.55-.23-1.1-.32-1.65.08.06.16.13.24.18,1.64,1.15,4.07,1.32,5.54-.04,1.12-1.03,1.45-2.66,1.48-4.18.03-1.52-.18-3.06.11-4.55.08-.41.19-.81.34-1.2.46-1.27,1.26-2.42,2.29-3.24,1.27-1,2.27-2.31,2.73-3.86.5-1.69,1.21-3.32,2.12-4.83,2.35-3.98,5.97-7.22,10.26-8.95.72-.3,1.46-.55,2.2-.78,2.37-.74,4.81-1.28,7.07-2.29,2.97-1.33,6.89-4.28,6.65-7.53-.29-3.97,1.21-8.05,4.01-10.88,1.79-1.81,4.13-3.19,5.33-5.44.96-1.77,1.06-3.75.92-5.78-.14-1.99-.5-4.04-.5-6.01-.01-5.39,2.94-10.69,7.53-13.5,4.59-2.82,10.65-3.07,15.45-.63.02.91.12,1.8.29,2.69l-14.28,20.66Z"/></g><circle class="cls-3" cx="435.78" cy="164.05" r="13.19"/><g class="cls-9"><path class="cls-4" d="m456.49,159.33c3.57,6.35,1.32,14.39-5.03,17.96-4.32,2.43-9.42,2.16-13.36-.26,1.42-.25,2.81-.74,4.14-1.48,6.35-3.57,8.6-11.61,5.03-17.96-1.14-2.03-2.74-3.64-4.6-4.78,5.37-.97,11,1.49,13.82,6.51Z"/></g><g class="cls-11"><path class="cls-1" d="m428.76,170.26c2.16,3.84,5.95,6.18,10.01,6.64-5.57,1.31-11.55-1.15-14.49-6.38-3.57-6.35-1.32-14.39,5.03-17.96,2.51-1.41,5.29-1.91,7.95-1.61-1.19.27-2.35.72-3.47,1.35-6.35,3.57-8.6,11.61-5.03,17.96Z"/></g><path class="cls-4" d="m437.29,178.7c-5.66.58-11.39-2.16-14.35-7.43-1.93-3.43-2.4-7.4-1.34-11.19,1.06-3.79,3.53-6.93,6.96-8.86,3.43-1.93,7.4-2.4,11.19-1.34,3.79,1.06,6.93,3.53,8.86,6.96,3.98,7.08,1.46,16.07-5.62,20.05-1.81,1.02-3.75,1.61-5.7,1.81Zm-2.7-26.24c-1.57.16-3.11.64-4.53,1.44-2.71,1.53-4.67,4.02-5.51,7.01-.84,3-.46,6.14,1.06,8.85,3.15,5.6,10.27,7.59,15.87,4.45,2.71-1.53,4.67-4.02,5.51-7.01.84-3,.46-6.14-1.06-8.85-1.53-2.71-4.02-4.67-7.01-5.51-1.43-.4-2.89-.52-4.33-.38Z"/><g class="cls-9"><circle class="cls-4" cx="436.78" cy="167.5" r="1.93"/></g><g class="cls-9"><circle class="cls-4" cx="438.68" cy="159.98" r="2.86"/></g><path class="cls-3" d="m478.67,95.46c-5.94,1.28-11.82-.73-15.75-4.81,0,0-.01-.01-.02-.02-2.1-2.19-3.64-4.96-4.33-8.14-1.97-9.13,3.84-18.13,12.97-20.1,2.27-.49,4.54-.5,6.69-.09,6.49,1.22,11.94,6.21,13.41,13.06,1.97,9.13-3.84,18.13-12.97,20.1Z"/><g class="cls-9"><path class="cls-4" d="m502.28,80.99c1.97,9.13-3.84,18.13-12.97,20.1-6.21,1.34-12.36-.92-16.27-5.37,1.83.23,3.73.16,5.63-.25,9.13-1.97,14.94-10.97,12.97-20.1-.63-2.92-1.98-5.5-3.83-7.59,6.95.85,12.91,5.99,14.47,13.22Z"/></g><g class="cls-11"><path class="cls-1" d="m462.95,82.73c1.19,5.52,4.95,9.83,9.75,11.93-3.65-.26-7.07-1.69-9.79-4.01,0,0-.01-.01-.02-.02-2.1-2.19-3.64-4.96-4.33-8.14-1.97-9.13,3.84-18.13,12.97-20.1,2.27-.49,4.54-.5,6.69-.09-.76.06-1.53.17-2.3.34-9.14,1.97-14.94,10.96-12.97,20.1Z"/></g><path class="cls-4" d="m476.96,97.28c-9.22.94-17.89-5.2-19.89-14.47-2.14-9.94,4.2-19.78,14.15-21.92,9.95-2.14,19.78,4.2,21.92,14.15,2.14,9.94-4.2,19.78-14.15,21.92-.68.15-1.36.25-2.03.32Zm-3.39-33.66c-.57.06-1.14.15-1.71.27-8.29,1.79-13.58,9.99-11.79,18.28.87,4.02,3.24,7.45,6.7,9.68,3.45,2.23,7.56,2.98,11.58,2.11,4.02-.87,7.45-3.24,9.68-6.7,2.23-3.45,2.98-7.56,2.11-11.58-.87-4.02-3.24-7.45-6.7-9.68-2.96-1.91-6.41-2.73-9.87-2.38Z"/><g class="cls-9"><circle class="cls-4" cx="475.03" cy="83.53" r="2.47"/></g><g class="cls-9"><circle class="cls-4" cx="480.21" cy="75.04" r="3.67"/></g><path class="cls-5" d="m427.29,146.1c1.07-.34,2.24.22,3.01,1.04.77.82,1.23,1.86,1.8,2.83,1.3,2.19,3.3,4.07,5.75,4.75,2.45.69,5.36,0,6.91-2.03,1.2-1.57,1.45-3.63,1.79-5.58.34-1.94.91-4.02,2.47-5.22"/><g class="cls-11"><path class="cls-1" d="m446.21,149.07c-.26,1.3-.64,2.57-1.44,3.62-1.55,2.03-4.45,2.72-6.91,2.03-2.45-.69-4.45-2.56-5.76-4.75-.57-.96-1.04-2.01-1.81-2.83-.65-.7-1.61-1.21-2.53-1.13l3.71-.72c.84-.16,1.69.23,2.13.97,0,0,0,0,0,.01,1.3,2.19,3.3,4.07,5.75,4.75,2.42.68,5.29.01,6.85-1.95Z"/></g><path class="cls-4" d="m427.17,145.73c.37-.22.82-.34,1.26-.35.45,0,.89.08,1.31.23.41.16.8.37,1.16.64.35.28.65.57.92.88.54.62.95,1.26,1.32,1.8.37.54.74,1.02,1.16,1.48.82.92,1.78,1.66,2.79,2.16,1.02.5,2.05.74,3.14.66,1.07-.07,2.13-.41,2.89-1.06.37-.33.7-.71.98-1.2.28-.48.49-1.06.69-1.67.4-1.23.65-2.66,1.2-4.09.27-.71.61-1.41,1.08-2.05.45-.64,1.05-1.2,1.73-1.57.19-.1.42-.03.53.16.08.15.06.32-.05.44h-.01c-.87,1-1.21,2.24-1.41,3.54-.2,1.29-.2,2.68-.45,4.19-.12.76-.32,1.54-.65,2.33-.32.78-.82,1.57-1.47,2.22-1.29,1.3-3.02,2.02-4.74,2.2-.87.09-1.75.05-2.61-.13-.87-.19-1.66-.5-2.41-.9-1.49-.81-2.7-1.97-3.63-3.25-.47-.64-.88-1.34-1.2-2.02-.32-.68-.55-1.3-.82-1.84-.27-.54-.53-.99-.95-1.36-.41-.38-.89-.64-1.5-.68h-.05c-.22-.01-.38-.2-.37-.42,0-.13.08-.25.19-.31Z"/><circle class="cls-3" cx="379.11" cy="81.46" r="13.19"/><g class="cls-9"><path class="cls-4" d="m399.82,76.74c3.57,6.35,1.32,14.39-5.03,17.96-4.32,2.43-9.42,2.16-13.36-.26,1.42-.25,2.81-.74,4.14-1.48,6.35-3.57,8.6-11.61,5.03-17.96-1.14-2.03-2.74-3.64-4.6-4.78,5.37-.97,11,1.49,13.82,6.51Z"/></g><g class="cls-11"><path class="cls-1" d="m372.09,87.66c2.16,3.84,5.95,6.18,10.01,6.64-5.57,1.31-11.55-1.15-14.49-6.38-3.57-6.35-1.32-14.39,5.03-17.96,2.51-1.41,5.29-1.91,7.95-1.61-1.19.27-2.35.72-3.47,1.35-6.35,3.57-8.6,11.61-5.03,17.96Z"/></g><path class="cls-4" d="m380.61,96.11c-1.81.18-3.66.03-5.47-.48-3.79-1.06-6.93-3.53-8.86-6.96-1.93-3.43-2.4-7.4-1.34-11.19,1.06-3.79,3.53-6.93,6.96-8.86,3.43-1.93,7.4-2.4,11.19-1.34,3.79,1.06,6.93,3.53,8.86,6.96,1.93,3.43,2.4,7.4,1.34,11.19-1.06,3.79-3.53,6.93-6.96,8.86-1.79,1.01-3.73,1.62-5.72,1.82Zm-2.68-26.25c-1.57.16-3.11.64-4.53,1.44-2.71,1.53-4.67,4.02-5.51,7.01-.84,3-.46,6.14,1.06,8.85,1.53,2.71,4.02,4.67,7.01,5.51,3,.84,6.14.46,8.85-1.06,2.71-1.53,4.67-4.02,5.51-7.01.84-3,.46-6.14-1.06-8.85h0c-1.53-2.71-4.02-4.67-7.01-5.51-1.43-.4-2.89-.52-4.33-.38Z"/><g class="cls-9"><circle class="cls-4" cx="380.11" cy="84.91" r="1.93"/></g><g class="cls-9"><circle class="cls-4" cx="382.01" cy="77.39" r="2.86"/></g><path class="cls-5" d="m370.62,63.5c1.07-.34,2.24.22,3.01,1.04.77.82,1.23,1.86,1.8,2.83,1.3,2.19,3.3,4.07,5.75,4.75,2.45.69,5.36,0,6.91-2.03,1.2-1.57,1.45-3.63,1.79-5.58.34-1.94.91-4.02,2.47-5.22"/><g class="cls-11"><path class="cls-1" d="m389.54,66.47c-.26,1.3-.64,2.57-1.44,3.62-1.55,2.03-4.45,2.72-6.91,2.03-2.45-.69-4.45-2.56-5.76-4.75-.57-.96-1.04-2.01-1.81-2.83-.65-.7-1.61-1.21-2.53-1.13l3.71-.72c.84-.16,1.69.23,2.13.97,0,0,0,0,0,.01,1.3,2.19,3.3,4.07,5.75,4.75,2.42.68,5.29.01,6.85-1.95Z"/></g><path class="cls-4" d="m370.51,63.14c.37-.22.82-.34,1.26-.35.45,0,.89.08,1.31.23.41.16.8.37,1.16.64.35.28.65.57.92.88.54.62.95,1.26,1.32,1.8.37.54.74,1.02,1.16,1.48.82.92,1.78,1.66,2.79,2.16,1.02.5,2.05.74,3.14.66,1.07-.07,2.13-.41,2.89-1.06.37-.33.7-.71.98-1.2.28-.48.49-1.06.69-1.67.4-1.23.65-2.66,1.2-4.09.27-.71.61-1.41,1.08-2.05.45-.64,1.05-1.2,1.73-1.57.19-.1.42-.03.53.16.08.15.05.32-.05.44h-.01c-.87,1-1.21,2.24-1.41,3.54-.2,1.29-.2,2.68-.45,4.19-.12.76-.32,1.54-.65,2.33-.32.78-.82,1.57-1.47,2.22-1.29,1.3-3.02,2.02-4.74,2.2-.87.09-1.75.05-2.61-.13-.87-.19-1.66-.5-2.41-.9-1.49-.81-2.7-1.97-3.63-3.25-.47-.64-.88-1.34-1.2-2.02-.32-.68-.55-1.3-.82-1.84-.27-.54-.53-.99-.95-1.36-.41-.38-.89-.64-1.5-.68h-.05c-.22-.01-.38-.2-.37-.42,0-.13.08-.25.19-.31Z"/><g class="cls-9"><path class="cls-4" d="m421.59,89.55c-2.48,4.04.54,5.95,4.69,7.72,1.58.68,2.13,2.65,1.11,4.04-1.01,1.38-2.28,3.03-3.54,4.4-2.7,2.95,2.38,4.87,2.38,4.87l.79.38s4.67,2.76,5.29-1.18c.29-1.85.79-3.91,1.25-5.57.45-1.67,2.35-2.47,3.87-1.63,4.36,2.4,8.4,4.12,9.71-.75,1.06-3.94-1.61-11.29-8.67-14.69-7.06-3.39-14.32-1.78-16.88,2.4Z"/></g><path class="cls-6" d="m416.51,84.91c-2.48,4.04.54,5.95,4.69,7.72,1.58.68,2.13,2.65,1.11,4.04-1.01,1.38-2.28,3.03-3.54,4.4-2.7,2.95,2.38,4.87,2.38,4.87l.79.38s4.67,2.76,5.29-1.18c.29-1.85.79-3.91,1.25-5.57.45-1.67,2.35-2.47,3.87-1.63,4.36,2.4,8.4,4.12,9.71-.75,1.06-3.94-1.61-11.29-8.67-14.69-7.06-3.39-14.32-1.78-16.88,2.4Z"/><g class="cls-9"><path class="cls-4" d="m417.43,101.89c-.74,2.3,3.07,3.74,3.07,3.74l.79.38s4.67,2.77,5.29-1.18c.29-1.85.79-3.91,1.24-5.56.45-1.67,2.36-2.47,3.87-1.63,4.35,2.4,8.4,4.11,9.72-.75.67-2.49-.15-6.33-2.62-9.68,1.06,2.44,1.31,4.86.84,6.6-1.31,4.86-5.36,3.15-9.71.74-1.51-.83-3.41-.03-3.86,1.64-.45,1.66-.96,3.72-1.25,5.57-.62,3.94-5.29,1.18-5.29,1.18l-.78-.38s-.61-.23-1.3-.66Z"/></g><g class="cls-11"><path class="cls-10" d="m417.27,90.49c.06-.7.34-1.49.88-2.38,2.56-4.18,9.83-5.79,16.88-2.4,2.87,1.38,5.01,3.41,6.47,5.6-1.22-3.3-3.87-6.76-8.11-8.8-7.06-3.39-14.32-1.78-16.88,2.4-1.56,2.54-.95,4.23.75,5.58Z"/></g><path class="cls-4" d="m425.45,108.78c-1.82.19-3.68-.79-4.22-1.1l-.68-.33c-.71-.28-3.46-1.49-4-3.79-.2-.84-.17-2.14,1.1-3.53,1.02-1.11,2.17-2.55,3.43-4.27.28-.39.23-.78.18-.98-.05-.2-.21-.56-.65-.75-2.62-1.12-5.49-2.53-6.3-5.07-.47-1.48-.17-3.12.9-4.87h0c3.2-5.22,11.48-6.53,18.86-2.98,8.05,3.87,10.68,12.05,9.48,16.47-.53,1.96-1.52,3.27-2.95,3.87-2.62,1.11-5.88-.47-8.99-2.19-.42-.23-.8-.13-.99-.05-.19.08-.53.28-.65.75-.56,2.05-.98,3.92-1.21,5.4-.29,1.86-1.29,2.69-2.07,3.06-.4.19-.82.29-1.24.34Zm-7.62-23.06c-.59.95-.79,1.74-.6,2.33.4,1.25,2.54,2.31,4.58,3.18,1.19.51,2.06,1.51,2.41,2.76.34,1.25.1,2.56-.66,3.6-1.33,1.82-2.55,3.34-3.64,4.53-.16.18-.43.52-.38.75.13.57,1.35,1.34,2.17,1.65.04.02.08.03.12.05l.79.38s.08.04.12.06c.86.5,2.15.89,2.65.66.21-.1.31-.52.35-.76.25-1.61.68-3.54,1.28-5.73.34-1.25,1.22-2.26,2.42-2.76,1.2-.51,2.53-.44,3.67.19,1.57.87,4.84,2.67,6.3,2.05.52-.22.91-.84,1.19-1.85.91-3.37-1.63-9.91-7.85-12.9-6.58-3.16-12.86-1.52-14.91,1.82h0Z"/><g class="cls-9"><path class="cls-4" d="m381.36,134.75c-1.04,4.62,2.44,5.46,6.94,5.79,1.72.13,2.87,1.82,2.36,3.46-.51,1.63-1.18,3.61-1.92,5.31-1.6,3.66,3.83,3.84,3.83,3.84l.87.1s5.32,1.11,4.63-2.83c-.32-1.85-.51-3.95-.62-5.67-.11-1.72,1.43-3.1,3.13-2.8,4.9.87,9.28,1.18,8.95-3.84-.26-4.07-5.17-10.17-12.95-11.1-7.77-.93-14.13,2.94-15.2,7.73Z"/></g><path class="cls-6" d="m375.06,131.99c-1.04,4.62,2.44,5.46,6.94,5.79,1.72.13,2.87,1.82,2.36,3.46-.51,1.63-1.18,3.61-1.92,5.31-1.6,3.66,3.83,3.84,3.83,3.84l.87.1s5.32,1.11,4.63-2.83c-.32-1.85-.51-3.95-.62-5.67-.11-1.72,1.43-3.1,3.13-2.8,4.9.87,9.28,1.18,8.95-3.84-.26-4.07-5.17-10.17-12.95-11.1s-14.13,2.94-15.2,7.73Z"/><g class="cls-9"><path class="cls-4" d="m381.42,147.76c.05,2.41,4.12,2.55,4.12,2.55l.87.1s5.32,1.11,4.62-2.83c-.32-1.85-.51-3.95-.62-5.67-.11-1.73,1.43-3.1,3.13-2.8,4.9.87,9.28,1.18,8.95-3.85-.17-2.57-2.19-5.94-5.61-8.32,1.79,1.97,2.81,4.17,2.93,5.97.33,5.03-4.05,4.71-8.95,3.84-1.7-.3-3.24,1.07-3.13,2.8.11,1.72.3,3.82.62,5.67.69,3.93-4.63,2.83-4.63,2.83l-.86-.1s-.65-.02-1.44-.2Z"/></g><g class="cls-11"><path class="cls-10" d="m377.58,137.03c-.17-.68-.16-1.52.07-2.54,1.07-4.78,7.43-8.65,15.2-7.72,3.16.38,5.84,1.61,7.93,3.21-2.22-2.73-5.85-5.15-10.51-5.7-7.77-.93-14.13,2.94-15.2,7.72-.65,2.9.47,4.31,2.51,5.04Z"/></g><path class="cls-4" d="m389.46,152.15c-1.14.12-2.18-.05-2.58-.13l-.74-.09c-.76-.03-3.75-.29-5.01-2.29-.46-.73-.85-1.97-.1-3.69.59-1.36,1.24-3.14,1.86-5.15.14-.46-.03-.81-.15-.98-.12-.17-.38-.46-.86-.5-2.85-.21-6.01-.62-7.6-2.76-.92-1.25-1.17-2.89-.72-4.9,1.34-5.97,8.75-9.89,16.88-8.92,8.87,1.06,14,7.95,14.3,12.52.13,2.03-.39,3.59-1.54,4.62-2.12,1.9-5.71,1.45-9.21.84-.47-.08-.8.13-.95.27-.15.14-.41.44-.38.92.13,2.12.34,4.03.6,5.5.33,1.86-.35,2.96-.97,3.57-.78.76-1.84,1.07-2.83,1.17Zm-3.26-26.4c-5.25.54-8.95,3.48-9.64,6.59h0c-.25,1.09-.18,1.9.19,2.4.78,1.05,3.15,1.36,5.36,1.53,1.29.1,2.44.76,3.17,1.83.73,1.07.92,2.39.54,3.62-.67,2.15-1.33,3.99-1.98,5.47-.1.22-.24.63-.12.83.31.49,1.72.83,2.59.86.04,0,.09,0,.13,0l.87.1s.09.01.13.02c.97.2,2.33.15,2.72-.23.17-.16.12-.59.08-.83-.28-1.61-.5-3.57-.64-5.84-.08-1.29.43-2.53,1.4-3.4.97-.87,2.26-1.23,3.53-1.01,1.77.31,5.44.96,6.63-.1.42-.37.59-1.09.53-2.13-.23-3.49-4.75-8.85-11.6-9.67-1.36-.16-2.66-.17-3.88-.04Zm-11.14,6.25h0s0,0,0,0Z"/><g class="cls-9"><path class="cls-4" d="m461.34,126.43c-1.04,4.62,2.44,5.46,6.94,5.79,1.72.13,2.87,1.82,2.36,3.46-.51,1.63-1.18,3.61-1.92,5.31-1.6,3.66,3.83,3.84,3.83,3.84l.87.1s5.32,1.11,4.63-2.83c-.32-1.85-.51-3.95-.62-5.67-.11-1.72,1.43-3.1,3.13-2.8,4.9.87,9.28,1.18,8.95-3.84-.26-4.07-5.17-10.17-12.95-11.1-7.77-.93-14.13,2.94-15.2,7.73Z"/></g><path class="cls-6" d="m455.04,123.68c-1.04,4.62,2.44,5.46,6.94,5.79,1.72.13,2.87,1.82,2.36,3.46-.51,1.63-1.18,3.61-1.92,5.31-1.6,3.66,3.83,3.84,3.83,3.84l.87.1s5.32,1.11,4.63-2.83c-.32-1.85-.51-3.95-.62-5.67-.11-1.72,1.43-3.1,3.13-2.8,4.9.87,9.28,1.18,8.95-3.84-.26-4.07-5.17-10.17-12.95-11.1-7.77-.93-14.13,2.94-15.2,7.73Z"/><g class="cls-9"><path class="cls-4" d="m461.39,139.45c.05,2.41,4.12,2.55,4.12,2.55l.87.1s5.32,1.11,4.62-2.83c-.32-1.85-.51-3.95-.62-5.67-.11-1.73,1.43-3.1,3.13-2.8,4.9.87,9.28,1.18,8.95-3.85-.17-2.57-2.19-5.94-5.61-8.32,1.79,1.97,2.81,4.17,2.93,5.97.33,5.03-4.05,4.71-8.95,3.84-1.7-.3-3.24,1.07-3.13,2.8.11,1.72.3,3.82.62,5.67.69,3.93-4.63,2.83-4.63,2.83l-.86-.1s-.65-.02-1.44-.2Z"/></g><g class="cls-11"><path class="cls-10" d="m457.55,128.71c-.17-.68-.16-1.52.07-2.54,1.07-4.78,7.43-8.65,15.2-7.72,3.16.38,5.84,1.61,7.93,3.21-2.22-2.73-5.85-5.15-10.51-5.7-7.77-.93-14.13,2.94-15.2,7.72-.65,2.9.47,4.31,2.51,5.04Z"/></g><path class="cls-4" d="m469.44,143.83c-1.14.12-2.18-.05-2.58-.13l-.75-.09c-.76-.03-3.75-.29-5.01-2.29-.46-.73-.85-1.97-.1-3.69.59-1.36,1.24-3.14,1.86-5.15.14-.46-.03-.81-.15-.98-.12-.17-.38-.46-.86-.5-2.85-.21-6.01-.62-7.6-2.76-.92-1.25-1.17-2.89-.72-4.9h0c1.34-5.97,8.76-9.89,16.88-8.92,8.87,1.06,14,7.95,14.3,12.52.13,2.03-.39,3.59-1.54,4.62-2.12,1.9-5.71,1.45-9.21.84-.47-.08-.8.13-.95.27-.15.14-.41.44-.38.92.14,2.16.34,4.01.6,5.5.33,1.86-.35,2.96-.97,3.57-.78.76-1.84,1.07-2.83,1.17Zm-12.9-19.82c-.25,1.09-.18,1.9.19,2.4.78,1.05,3.15,1.36,5.36,1.53,1.29.1,2.44.76,3.17,1.83.73,1.07.92,2.39.54,3.62-.67,2.14-1.33,3.98-1.98,5.47-.1.22-.24.63-.12.83.29.46,1.6.83,2.59.86.04,0,.09,0,.13,0l.87.1s.09.01.13.02c.97.2,2.33.15,2.72-.23.17-.16.12-.59.08-.83-.28-1.6-.5-3.57-.64-5.84-.08-1.3.43-2.53,1.4-3.4.97-.87,2.26-1.23,3.53-1.01,1.77.31,5.44.96,6.63-.1.42-.37.59-1.09.53-2.13-.23-3.49-4.75-8.85-11.6-9.67-7.25-.87-12.66,2.72-13.52,6.54h0Z"/><g><path class="cls-12" d="m419.44,122.84c3.14,3.52,7.22,5.57,12.39,5.92l-2.53,5.3c-4.94-.29-9.07-2.26-12.39-5.92l2.53-5.3Z"/><g class="cls-11"><path class="cls-10" d="m416.91,128.14l2.53-5.3c.56.63,1.15,1.21,1.77,1.74l-1.57,3.29c2.75,3.04,6.06,4.92,9.92,5.63l-.27.57c-4.94-.29-9.07-2.26-12.39-5.92Z"/></g><path class="cls-4" d="m429.43,135.31c-.07,0-.13,0-.2,0-5.25-.3-9.71-2.43-13.24-6.33-.34-.38-.42-.92-.2-1.38l2.53-5.3c.18-.38.54-.64.95-.7.41-.06.83.09,1.11.4,3.02,3.39,6.8,5.19,11.54,5.51.41.03.78.26.99.62.21.36.23.79.05,1.17l-2.53,5.3c-.19.4-.57.66-1,.7Zm-11.02-7.4c2.82,2.86,6.15,4.45,10.14,4.85l1.4-2.94c-3.93-.59-7.34-2.2-10.15-4.83l-1.39,2.92Z"/></g><g><path class="cls-12" d="m354.46,104.95c3.14,3.52,7.22,5.57,12.39,5.92l-2.53,5.3c-4.94-.29-9.07-2.26-12.39-5.92l2.53-5.3Z"/><g class="cls-11"><path class="cls-10" d="m351.92,110.25l2.53-5.3c.56.63,1.15,1.21,1.77,1.74l-1.57,3.29c2.75,3.04,6.06,4.92,9.92,5.63l-.27.57c-4.94-.29-9.07-2.26-12.39-5.92Z"/></g><path class="cls-4" d="m364.44,117.41c-.07,0-.13,0-.2,0-5.25-.3-9.71-2.43-13.24-6.33-.34-.38-.42-.92-.2-1.38l2.53-5.3c.18-.38.54-.64.95-.7.41-.06.83.09,1.11.4,3.02,3.39,6.8,5.19,11.54,5.51.41.03.78.26.99.62.21.36.23.79.05,1.17l-2.53,5.3c-.19.4-.57.66-1,.7Zm-11.02-7.4c2.82,2.86,6.15,4.45,10.14,4.85l1.4-2.94c-3.93-.59-7.34-2.2-10.15-4.83l-1.39,2.92Z"/></g><g><path class="cls-12" d="m491.35,41.12c-4.32,1.89-7.54,5.13-9.48,9.94l-4.25-4.05c1.81-4.6,4.96-7.92,9.48-9.94l4.25,4.05Z"/><g class="cls-11"><path class="cls-10" d="m487.1,37.07l4.25,4.06c-.77.34-1.51.72-2.21,1.14l-2.63-2.52c-3.74,1.67-6.56,4.23-8.43,7.69l-.46-.43c1.81-4.6,4.97-7.92,9.48-9.94Z"/></g><path class="cls-4" d="m481.99,52.3c-.36.04-.72-.09-.99-.34l-4.25-4.05c-.37-.35-.49-.89-.3-1.36,1.92-4.9,5.33-8.47,10.13-10.62.46-.21,1-.11,1.37.24l4.25,4.05c.3.29.44.71.37,1.12-.07.41-.35.76-.73.93-4.16,1.82-7.04,4.85-8.82,9.26-.15.38-.49.67-.89.75-.05,0-.09.02-.14.02Zm-2.89-5.61l2.35,2.25c1.78-3.56,4.37-6.29,7.74-8.14l-2.34-2.23c-3.59,1.79-6.14,4.46-7.76,8.13Z"/></g><g><path class="cls-12" d="m449.01,195.11c-4.32,1.89-7.54,5.13-9.48,9.94l-4.25-4.05c1.81-4.6,4.96-7.92,9.48-9.94l4.25,4.05Z"/><g class="cls-11"><path class="cls-10" d="m444.76,191.06l4.25,4.06c-.77.34-1.51.72-2.21,1.14l-2.63-2.52c-3.74,1.67-6.56,4.23-8.43,7.69l-.46-.43c1.81-4.6,4.97-7.92,9.48-9.94Z"/></g><path class="cls-4" d="m439.65,206.29c-.36.04-.72-.09-.99-.34l-4.25-4.05c-.37-.35-.49-.89-.3-1.36,1.92-4.9,5.33-8.47,10.13-10.62.46-.21,1-.11,1.37.24l4.25,4.05c.3.29.44.71.37,1.12-.07.41-.35.76-.73.93-4.16,1.82-7.04,4.85-8.82,9.26-.15.38-.49.67-.89.75-.05,0-.09.02-.14.02Zm-2.89-5.61l2.35,2.25c1.78-3.56,4.37-6.29,7.74-8.14l-2.34-2.23c-3.59,1.79-6.14,4.46-7.76,8.13Z"/></g><g class="cls-9"><path class="cls-4" d="m396.64,102.14c-1.53.37-3.15.5-4.5,1.3-1.35.79-2.33,2.56-1.59,3.95.54,1.02,1.82,1.46,2.97,1.34,1.15-.12,2.2-.67,3.21-1.22,1.01-.55,2.06-1.11,3.21-1.23,2.25-.23,3.88.24,5.49-1.71,1.02-1.23,1.62-3,.62-4.41-2.26-3.2-6.75,1.35-9.41,1.99Z"/></g><g class="cls-9"><path class="cls-4" d="m406.72,94.39c-.19.69-.04,1.42.11,2.12.15.73.41,1.57,1.12,1.8.47.15.98-.03,1.42-.23.64-.29,1.28-.63,1.79-1.12s.9-1.14.95-1.84c.07-.87-.42-1.75-1.18-2.16-1.19-.64-3.82.01-4.21,1.44Z"/></g><g class="cls-9"><path class="cls-4" d="m353.81,83.22c.33,1.15.93,2.19,1.59,3.19.61.92,1.28,1.82,1.66,2.86.38,1.04.43,2.27-.17,3.2-.72,1.11-2.25,1.53-3.52,1.16-1.27-.37-2.27-1.4-2.87-2.58-.6-1.18-.84-2.51-1-3.82-.29-2.4-.26-5.07,1.26-6.96.57-.72,1.93-1.61,2.72-.66.59.71.07,2.7.33,3.61Z"/></g><g class="cls-9"><path class="cls-4" d="m405.23,161.46c.16,1.2.63,2.43,1.61,3.15.98.72,2.54.7,3.26-.27.74-.99.35-2.38.43-3.61.08-1.24.7-2.44,1.66-3.22.91-.74,2.13-1.15,2.8-2.12.8-1.16.42-2.95-.77-3.69-1.88-1.17-5.03,1.18-6.37,2.48-1.91,1.86-2.98,4.63-2.62,7.29Z"/></g><g class="cls-9"><path class="cls-4" d="m494.49,113.71c-.07.97-.05,2.08-.76,2.75-.76.72-2.05.54-2.88-.09-1.1-.84-1.61-2.32-1.49-3.7.11-1.38.78-2.67,1.64-3.76.8-1.01,1.85-1.91,3.12-2.13,1.52-.26,3.55.79,2.46,2.28-1.11,1.51-1.95,2.68-2.09,4.65Z"/></g><g class="cls-9"><path class="cls-4" d="m440.21,117.02c-1.23,1.68-1.71,3.89-1.3,5.93.14.69.39,1.39.88,1.9.49.51,1.26.79,1.93.55.91-.32,1.27-1.41,1.39-2.37.12-.96.14-2.01.77-2.75.82-.96,2.33-.99,3.24-1.86,1.56-1.48.22-3.94-1.65-4.33-1.89-.39-4.25,1.52-5.27,2.92Z"/></g><g class="cls-9"><path class="cls-4" d="m449.39,110.09c.39-.25.9-.35,1.33-.18.53.2.84.74,1.07,1.26.23.52.43,1.11.27,1.67-.23.81-1.2,1.24-2.02,1.06-.61-.13-1.16-.54-1.45-1.09-.54-1.02-.14-2.11.8-2.71Z"/></g><g class="cls-9"><path class="cls-4" d="m465.55,158.23c.39-.25.9-.35,1.33-.18.53.2.84.74,1.07,1.26.23.52.43,1.11.27,1.67-.23.81-1.2,1.24-2.02,1.06-.61-.13-1.16-.54-1.45-1.09-.54-1.02-.14-2.11.8-2.71Z"/></g><g class="cls-9"><path class="cls-4" d="m381.96,49.81c.39-.25.9-.35,1.33-.18.53.2.84.74,1.07,1.26.23.52.43,1.11.27,1.67-.23.81-1.2,1.24-2.02,1.06-.61-.13-1.16-.54-1.45-1.09-.54-1.02-.14-2.11.8-2.71Z"/></g><g class="cls-9"><path class="cls-4" d="m417.18,177.32c.39-.25.9-.35,1.33-.18.53.2.84.74,1.07,1.26.23.52.43,1.11.27,1.67-.23.81-1.2,1.24-2.02,1.06-.61-.13-1.16-.54-1.45-1.09-.54-1.02-.14-2.11.8-2.71Z"/></g><g class="cls-9"><path class="cls-4" d="m360.42,126.98c.39-.25.9-.35,1.33-.18.53.2.84.74,1.07,1.26.23.52.43,1.11.27,1.67-.23.81-1.2,1.24-2.02,1.06-.61-.13-1.16-.54-1.45-1.09-.54-1.02-.14-2.11.8-2.71Z"/></g><g class="cls-9"><path class="cls-4" d="m466.53,49.06c.39-.25.9-.35,1.33-.18.53.2.84.74,1.07,1.26.23.52.43,1.11.27,1.67-.23.81-1.2,1.24-2.02,1.06-.61-.13-1.16-.54-1.45-1.09-.54-1.02-.14-2.11.8-2.71Z"/></g></g></g></g></svg>