<?xml version="1.0" encoding="UTF-8"?><svg id="Camada_2" xmlns="http://www.w3.org/2000/svg" viewBox="0 0 574.64 576.97"><defs><style>.cls-1{fill:#fff;}</style></defs><g id="Camada_1-2"><path class="cls-1" d="m268,5.57c11.12-7.43,25.62-7.43,36.74,0,28.32,17.82,55.49,37.4,81.35,58.63,0,0,7.04,4.88,7.24-3.39-.7-10.68-.07-21.41,1.88-31.93,2.13-5.63,7.51-9.36,13.52-9.4,0,0,31.95,1.6,52.23,4.32,9.07,1.21,16.14,8.46,17.11,17.56,0,0,13.05,87.01,15.98,118.38,0,0,2.52,15.98,25.64,43.03,0,0,46.97,65.77,52.43,78.35,0,0,10.89,22.74-12.59,25.84,0,0-42.85,4.32-46.98,5.27-5.77.69-9.94,5.86-9.4,11.65,0,0-2.25,151.36-13.33,224.07,0,0-2.92,28.85-18.79,28.19,0,0-44.07-1.41-54.31-1.12,0,0-4.41,0-3.76-5.92,0,0,22.45-236.01,7.24-355.32,0,0-.67-15.4-12.4-18.79,0,0-10.71-4.32-20.95,9.4-44.44,62.21-68.76,136.54-69.71,212.99,0,0-1.23,37.58,4.51,46.97,0,0,3.55,6.58,21.8,8.08l23.1,3.11s4.23,0,3.85,5.62c0,0-5.25,69.25-6.75,81.56-.1,2.81-.67,5.56-1.7,8.17,0,0-.84,2.35-8.08,2.07,0,0-101.83-.74-113.3,0,0,0-4.79,0-5.82-2.53-1.04-2.55-7.06-89.36-6.87-101.66-.19-2.56,1.23-4.96,3.57-6.02,15.74-9.93,26.12-26.48,28.19-44.98,1.24-13.17,1.42-26.38.56-39.57,0,0,3.76-132.74,4.71-154.08,0,0,.74-7.24-8.66-8.54-4.69-1.1-9.39,1.79-10.52,6.48v.74c0,.75-6.57,87.57-5.36,122.13,0,0,2.26,22.64-13.42,23.11,0,0-15.23,2.26-15.98-16.62,0,0,1.12-85.13,4.88-127.21.03-4.81-3.58-8.87-8.36-9.4-4.97-.69-9.61,2.66-10.51,7.61-.06.24-.06.5,0,.74,0,0-6.58,81.47-5.37,124.5,0,0,1.88,20.86-14.75,20.09,0,0-13.91,1.6-14.65-16.91,0,0,3.76-116.59,4.79-125.6-.25-4.59-3.79-8.33-8.36-8.83h-.95c-4.87-.41-9.24,2.98-10.06,7.8-.03.28-.03.56,0,.84,0,0-6.19,139.42-5.34,180.38,0,0-.56,42.1,30.53,59.19,0,0,4.6,2.63,4.71,6.67,0,0,3.48,73.94,6.66,97.81,0,0,1.14,5.73-3.94,5.73l-78.26,2.16c-8.52-.05-15.52-6.72-15.98-15.23-10.14-78.34-14.97-157.28-14.46-236.28.57-6.05-3.46-11.57-9.4-12.87,0,0-40.03-3.65-49.7-6.1-8.89-2.31-14.22-11.39-11.91-20.28.39-1.49.98-2.92,1.76-4.25C67.33,169.79,158.48,74.97,268.01,5.57h-.01Z"/></g></svg>