<?xml version="1.0" encoding="UTF-8"?><svg id="Camada_2" xmlns="http://www.w3.org/2000/svg" viewBox="0 0 597.45 604.38"><defs><style>.cls-1{fill:#fff;}.cls-2{fill:#e7391d;}.cls-3{fill:#64130e;}.cls-4{fill:#fbc100;}.cls-5{fill:#f9cc94;}.cls-6{fill:#f1861b;}.cls-7{fill:#fbbb0e;}.cls-8{opacity:.3;}.cls-9{fill:#fffffe;}.cls-10{opacity:.55;}.cls-11{fill:#68b657;}.cls-12{fill:#f49524;}</style></defs><g id="Camada_1-2"><g><path class="cls-7" d="m555.6,246.38c-.18.6-.35,1.2-.54,1.81-4.68,15.56-11.43,30.69-20.13,45.13-2.29,3.83-4.73,7.6-7.31,11.33l-17.62,25.49-11.4,16.48-12.09,17.5-1.28,1.86-36.95,53.45-54.39,78.66-22.76,32.92c-6.89,9.96-17.06,16.99-28.6,19.96-2.43.63-4.9,1.07-7.43,1.33-7.38.75-14.74-.15-21.57-2.54-6.64-2.32-12.79-6.05-18.02-11.04l-2.76-2.64-196.22-187.47c-16.1-15.38-29.28-32.68-39.16-51.4-8.86-16.81-14.92-34.24-18.17-51.78-6.8-36.56-1.41-73.58,16.23-106.5,23.73-44.26,65.55-73.51,111.85-78.23,25.95-2.65,52.4,2.77,76.46,15.69,16.74,8.99,32.34,21.44,46.61,37.21,10.79-18.32,23.56-33.67,38.14-45.85,20.98-17.51,45.77-28.15,71.72-30.8,46.31-4.72,93.16,15.48,125.35,54.04,35.4,42.42,46.35,99.06,30.05,155.4Z"/><g class="cls-10"><path class="cls-1" d="m369.62,533.07c-6.82,8.87-16.37,15.14-27.1,17.91-2.43.63-4.9,1.07-7.43,1.33-7.38.75-14.74-.15-21.57-2.54-6.64-2.32-12.79-6.05-18.02-11.04l-2.76-2.64-196.22-187.47c-16.1-15.38-29.28-32.68-39.16-51.4-8.86-16.81-14.92-34.24-18.17-51.78-6.8-36.56-1.41-73.58,16.23-106.5,8.29-15.47,18.79-29.09,30.92-40.48-8.57,9.45-16.13,20.12-22.41,31.84-17.64,32.92-23.03,69.94-16.23,106.5,3.25,17.54,9.31,34.96,18.17,51.78,9.89,18.72,23.06,36.02,39.16,51.4l196.22,187.47,2.76,2.64c5.23,4.99,11.38,8.72,18.02,11.04,6.83,2.39,14.19,3.29,21.57,2.54,2.53-.26,5-.71,7.43-1.33,6.81-1.76,13.15-4.92,18.6-9.27Z"/></g><g class="cls-8"><path class="cls-3" d="m555.6,246.38c-.18.6-.35,1.2-.54,1.81-4.61,6.34-14.07,8.64-21.59,5.88-8.4-3.08-14.25-11.17-16.61-19.79-2.36-8.63-1.72-17.79-.38-26.64,1.74-11.61,4.18-24.93-3.42-33.86-3.16-3.7-7.61-6-11.46-8.99-12.17-9.47-17.34-25.07-23.78-39.08-6.44-14.02-16.65-28.54-31.9-30.75-13.94-2.01-28.22-10.11-42.27-9.26-14.06.85-28.67,10.19-30.63,24.13-1.22,8.7,2.55,17.45,1.71,26.19-.84,8.71-6.63,16.78-14.61,20.38-7.98,3.6-17.86,2.58-24.94-2.56,2.81,15.21-8.77,34.1-22.56,41.1-13.8,7.01-32.02,3.86-42.66-7.37-13.96-14.74-13.21-37.82-21.6-56.31-11.13-24.53-40.35-39.33-66.71-33.79-10.11.61-21.33,2.13-30.43,6.6-9.1,4.47-16.63,13.72-15.88,23.84.35,4.64,2.37,9.05,2.51,13.71.18,5.77-2.81,11.54-7.61,14.75-4.81,3.21-11.29,3.74-16.55,1.35-8.79-3.98-19.88,9.56-20.21,19.21-.12,3.57.65,7.51-1.4,10.45-2.1,2.98-6.24,3.58-9.89,3.69-3.65.11-7.68.16-10.39,2.61-1.89,6.68-1.28,13.66-.62,20.57.65,6.91,1.52,13.9.47,20.78-1.04,6.87-4.3,13.75-10.19,17.44-5.88,3.68-14.62,3.15-18.85-2.36-1.17-1.53-2.32-3.08-3.43-4.64-6.8-36.56-1.41-73.58,16.23-106.5,23.73-44.26,65.55-73.51,111.85-78.23,25.95-2.65,52.4,2.77,76.46,15.69,16.74,8.99,32.34,21.44,46.61,37.21,10.79-18.32,23.56-33.67,38.14-45.85,20.98-17.51,45.77-28.15,71.72-30.8,46.31-4.72,93.16,15.48,125.35,54.04,35.4,42.42,46.35,99.06,30.05,155.4Z"/></g><path class="cls-3" d="m335.49,556.25c-15.73,1.6-31.31-3.74-42.74-14.66l-198.98-190.1c-16.41-15.68-29.85-33.32-39.93-52.43-27.97-53.07-28.67-112.12-1.93-162,24.35-45.43,67.33-75.45,114.95-80.31,26.74-2.73,53.97,2.85,78.74,16.14,15.68,8.41,30.49,19.89,44.07,34.15,10.42-16.71,22.61-30.94,36.27-42.34,21.58-18.02,47.12-28.98,73.86-31.71,47.63-4.86,95.78,15.87,128.8,55.45,36.26,43.45,47.49,101.42,30.81,159.04-6.01,20.75-15.61,40.74-28.52,59.42l-156.5,226.36c-8.99,13.01-23.17,21.39-38.9,22.99ZM167.67,64.66c-44.99,4.59-85.65,33.06-108.75,76.16-25.47,47.51-24.76,103.84,1.96,154.54,9.68,18.35,22.59,35.3,38.39,50.39l198.98,190.1c9.75,9.31,23.04,13.87,36.45,12.5,13.42-1.37,25.51-8.51,33.18-19.61l156.5-226.36c12.43-17.97,21.65-37.18,27.43-57.11,15.93-55.05,5.25-110.36-29.28-151.75-31.33-37.55-76.9-57.22-121.9-52.63-25.16,2.57-49.22,12.91-69.58,29.91-14.18,11.84-26.72,26.92-37.27,44.82-.64,1.09-1.76,1.81-3.02,1.93s-2.5-.35-3.35-1.29c-13.94-15.4-29.27-27.64-45.55-36.37-23.37-12.54-49.02-17.8-74.18-15.24Z"/><path class="cls-6" d="m572.8,195.95c-1.15.28-2.34.49-3.55.61-4.71.48-9.34-.36-13.48-2.21-8.19-3.65-14.5-11.24-15.88-20.47-1.37-9.17-3.59-17.98-6.55-26.35-.02-.05-.03-.1-.05-.16-8.17-23.01-21.96-42.74-39.07-57.77-40.35-35.45-99.17-44.84-146.49-9.62-12.96,9.64-25.04,22.63-35.65,39.34-2.38,3.75-5.5,6.67-9.03,8.73-6.71,3.93-14.89,4.76-22.26,2.26-3.87-1.3-7.5-3.53-10.59-6.71-2.31-2.39-4.65-4.68-7.01-6.84-1.34-1.25-2.7-2.45-4.05-3.62-3.54-3.06-7.12-5.88-10.72-8.46-1.09-.78-2.17-1.53-3.26-2.26-47.5-32.09-99.19-24.48-136.21,5.03-17.86,14.22-32.29,33.54-41.2,55.96-7.25,18.19-10.83,38.42-9.66,59.63.78,14.04-10.18,26.71-24.18,28.14-12.69,1.29-24.16-6.43-28.17-17.88-.7-1.96-1.17-4.03-1.39-6.18-.04-.41-.07-.82-.09-1.22-1.98-35.27,5.57-70.29,22.67-102.2C55.75,69.94,106.99,34.39,163.98,28.58c32.38-3.3,65.24,3.39,95.01,19.36,4.31,2.31,8.54,4.8,12.7,7.47,7.95,5.11,18.41,4.04,25.16-2.57,3.53-3.46,7.18-6.75,10.92-9.88,25.94-21.65,56.76-34.84,89.15-38.14,57.01-5.81,114.36,18.66,153.43,65.48,12.59,15.08,22.6,31.65,29.96,49.22,6.2,14.8,10.5,30.33,12.87,46.3,2.07,13.99-7.01,26.96-20.38,30.13Z"/><g class="cls-10"><path class="cls-1" d="m593.41,171.54c-5.85-32.81-19.97-63.54-41.89-89.81-39.07-46.82-96.42-71.3-153.43-65.48-32.38,3.3-63.2,16.49-89.15,38.14-3.74,3.12-7.39,6.42-10.92,9.88-6.75,6.61-17.22,7.68-25.16,2.57-4.16-2.67-8.39-5.16-12.7-7.47-29.77-15.97-62.63-22.66-95.01-19.36-57,5.81-108.23,41.37-137.04,95.11-16.18,30.18-23.81,63.14-22.9,96.45-.41-1.43-.69-2.93-.84-4.46-.04-.41-.07-.82-.09-1.22-1.98-35.27,5.57-70.29,22.67-102.2C55.75,69.94,106.99,34.39,163.98,28.58c32.38-3.3,65.24,3.39,95.01,19.36,4.31,2.31,8.54,4.8,12.7,7.47,7.95,5.11,18.41,4.04,25.16-2.57,3.53-3.46,7.18-6.75,10.92-9.88,25.94-21.65,56.76-34.84,89.15-38.14,57.01-5.81,114.36,18.66,153.43,65.48,23.18,27.79,37.65,60.58,42.83,95.52.28,1.94.36,3.86.23,5.72Z"/></g><path class="cls-3" d="m569.65,200.51c-16.19,1.65-31.3-10.03-33.69-26.05-8.18-55.01-48.37-99.33-100-110.28-47.14-10-91.07,10.88-120.52,57.28-5.07,7.99-13.41,13.12-22.86,14.09-9.46.96-18.65-2.38-25.24-9.18-38.22-39.49-85.46-51.07-129.6-31.76-48.36,21.15-78.77,72.67-75.68,128.2.9,16.16-11.54,30.66-27.73,32.31-8.48.87-16.73-1.71-23.22-7.24-6.48-5.53-10.32-13.26-10.79-21.76-2.04-36.2,5.96-72.26,23.13-104.3C52.87,66.9,105.26,30.57,163.58,24.62c33.18-3.38,66.82,3.47,97.29,19.81,4.38,2.35,8.74,4.92,12.97,7.64,6.34,4.07,14.85,3.21,20.24-2.07,3.59-3.52,7.35-6.91,11.15-10.09,26.55-22.16,58.12-35.66,91.29-39.05,58.32-5.95,116.96,19.06,156.88,66.89,23.28,27.9,38.39,61.61,43.7,97.48,1.25,8.42-.95,16.77-6.18,23.49-5.24,6.73-12.79,10.92-21.28,11.78ZM402,54.43c11.72-1.2,23.71-.55,35.61,1.98,25.67,5.44,50.23,19.59,69.15,39.82,19.92,21.3,32.73,47.95,37.06,77.06,1.74,11.68,13.2,20.52,25.03,19.31h0c6.31-.64,11.92-3.75,15.81-8.76,3.89-5,5.52-11.2,4.59-17.45-5.1-34.43-19.6-66.78-41.95-93.56C509.08,27.04,453.01,3.09,397.32,8.77c-31.59,3.22-61.67,16.1-87,37.24-3.65,3.05-7.24,6.3-10.69,9.67-8.14,7.96-20.51,9.23-30.08,3.07-4.05-2.61-8.24-5.07-12.43-7.32-29.07-15.59-61.13-22.13-92.73-18.91-55.69,5.68-105.76,40.46-133.94,93.03-16.48,30.75-24.16,65.36-22.2,100.1.36,6.32,3.2,12.06,8.02,16.17,4.82,4.12,10.95,6.03,17.26,5.38,11.83-1.21,21.27-12.18,20.61-23.97-1.64-29.39,5.54-58.08,20.74-82.96,14.44-23.64,35.64-42.44,59.68-52.96,21.91-9.58,45.59-12.13,68.46-7.36,25.33,5.28,48.89,19.03,70.03,40.88,4.88,5.04,11.7,7.52,18.72,6.81,7.02-.72,13.2-4.52,16.96-10.45,16.29-25.66,36.59-43.89,60.33-54.18,10.53-4.56,21.61-7.44,32.93-8.59Z"/><path class="cls-12" d="m108.95,107.44c-.78,4.78-.71,9.67.31,14.43.86,3.99,2.31,7.89,2.42,11.97.11,4.08-1.52,8.56-5.19,10.34-5,2.4-11.5-1.08-16.31,1.67-2.76,1.58-4.1,4.75-5.94,7.35-3.7,5.29-9.78,8.54-16.05,10.1-.15.04-.3.07-.44.1-6.13,1.46-12.52,1.49-18.83,1.52l8.9-15.12,42.19-71.72,34.71-3.54c-13.63,5.31-23.45,18.56-25.77,32.9Z"/><path class="cls-3" d="m135.11,75.54c-5.26,2.93-9.76,6.78-13.3,11.34-3.47,4.61-6.12,9.75-7.63,15.18-.32,1.37-.72,2.71-.89,4.1-.11.69-.25,1.37-.34,2.06l-.17,2.07-.11,1.03v1.03s-.03,2.06-.03,2.06c.02.68.09,1.36.13,2.05.05.68.06,1.37.21,2.04.22,1.35.37,2.67.74,4.09l1.09,4.52c.36,1.6.68,3.31.83,5.13.08.9.11,1.85.05,2.85-.04.98-.18,1.95-.39,2.92-.42,1.93-1.17,3.86-2.39,5.66-1.2,1.78-3.03,3.45-5.21,4.33-2.14.91-4.29,1.11-6.1,1.12-1.83,0-3.43-.17-4.83-.23-1.4-.07-2.59-.02-3.42.2-.85.23-1.27.48-1.89,1.12-.61.64-1.3,1.68-2.07,2.97-.39.64-.81,1.35-1.31,2.09-.51.74-1.08,1.52-1.68,2.21-2.39,2.85-5.38,5.02-8.5,6.62-3.13,1.6-6.46,2.64-9.78,3.24-3.31.58-6.61.67-9.81.42-3.21-.27-6.32-.83-9.39-1.77h-.01c-.59-.19-.93-.81-.75-1.41.11-.37.41-.64.75-.75,6.15-1.85,12.13-2.59,17.5-4.16,5.34-1.43,10.21-4.09,13.37-7.8.41-.47.74-.94,1.11-1.46.36-.53.75-1.14,1.17-1.8.85-1.31,1.81-2.9,3.38-4.44.78-.76,1.73-1.51,2.8-2.07,1.07-.55,2.2-.97,3.28-1.18,2.18-.45,4.1-.35,5.76-.23,1.67.13,3.13.31,4.37.34,1.25.03,2.23-.1,2.92-.39.69-.26,1.25-.74,1.78-1.48.52-.73.9-1.73,1.11-2.8.1-.54.18-1.09.19-1.65.02-.54,0-1.12-.07-1.76-.11-1.24-.4-2.55-.76-3.94l-1.2-4.41c-.45-1.55-.7-3.29-1-4.96-1.03-6.79.04-13.7,2.34-19.95.25-.8.64-1.54.96-2.31.35-.76.63-1.54,1.04-2.27.8-1.46,1.54-2.94,2.5-4.3,1.73-2.82,3.94-5.3,6.23-7.63,4.71-4.55,10.48-7.98,16.63-9.64.58-.16,1.17.19,1.33.76.13.49-.09.99-.52,1.23l-.03.02Z"/><path class="cls-6" d="m369.66,51.34c-10.33,6.64-18.09,17.01-21.93,28.65-1.66,5.02-2.59,10.26-2.67,15.55-.12,7.76,1.45,15.57.26,23.23-1.18,7.67-6.22,15.6-13.91,16.65-4.02.55-8.39-.81-12.02,1.02-6.04,3.05-5.28,11.91-8.7,17.75-3.95,6.7-13.54,8.39-20.67,5.3-7.13-3.09-12.09-9.78-15.51-16.76-3.43-6.99-4.22-11.62-7.88-18.47-1.16-2.17-2.98-4.66-5.15-7.22-3.75-4.42-8.59-9.01-13.07-12.36-1.11-.84-2.21-1.6-3.26-2.26l86.27-35.38,38.24-15.69Z"/><path class="cls-3" d="m247.28,99.05c4.4,2.82,8.14,6.07,11.74,9.54,3.56,3.5,6.89,7.17,9.8,11.59,1.51,2.35,2.56,4.58,3.59,6.91,1.02,2.32,1.86,4.65,2.68,6.84,1.62,4.35,3.45,8.43,5.83,12.09,2.36,3.65,5.27,6.8,8.68,8.8,1.75,1.01,3.44,1.67,5.3,1.99,1.86.29,3.8.25,5.61-.14,1.81-.39,3.46-1.17,4.77-2.21,1.32-1.08,2.14-2.31,2.87-4.15.71-1.85,1.23-4.05,1.92-6.51.34-1.21.75-2.51,1.32-3.85.54-1.33,1.36-2.76,2.45-4.07,1.08-1.35,2.6-2.43,4.2-3.19,1.64-.75,3.34-1.07,4.82-1.16,2.97-.18,5.36.16,7.2,0,.46-.02.86-.08,1.26-.18.4-.06.79-.19,1.17-.32.39-.1.75-.33,1.14-.48.35-.24.74-.4,1.08-.67,1.41-.99,2.69-2.37,3.69-4.03,1.01-1.65,1.8-3.5,2.3-5.43.24-.98.45-1.89.57-2.95.15-1.03.21-2.11.26-3.18.15-4.34-.31-8.99-.44-13.93-.08-2.46-.04-5.04.22-7.6.08-1.28.33-2.54.5-3.81.2-1.26.5-2.51.76-3.76,1.18-4.97,3.12-9.7,5.57-14.1,4.94-8.76,12.24-16.14,20.94-20.67.53-.28,1.18-.07,1.46.46.24.47.11,1.03-.29,1.35h0c-14.69,11.67-22.75,30-21.01,47.74.33,4.58.92,9.46.69,14.66-.07,1.3-.16,2.61-.35,3.94-.16,1.31-.46,2.74-.82,4.06-.77,2.67-1.91,5.24-3.45,7.62-1.53,2.38-3.55,4.57-6.07,6.3-2.47,1.75-5.7,2.77-8.71,2.94-2.93.13-5.31-.22-7.1-.06-.9.06-1.57.23-2.1.47-.53.3-1.04.57-1.44,1.11-.87.99-1.59,2.81-2.19,4.96-.61,2.13-1.16,4.6-2.15,7.21-.97,2.6-2.83,5.52-5.25,7.42-2.42,1.94-5.23,3.19-8.08,3.81-2.85.61-5.76.67-8.61.22-2.85-.46-5.67-1.58-8.03-2.97-4.84-2.86-8.5-6.99-11.31-11.32-2.83-4.34-4.89-9.04-6.61-13.62-.86-2.27-1.64-4.43-2.54-6.48-.89-2.03-1.9-4.12-2.99-5.78-2.33-3.56-5.43-7.03-8.67-10.2-3.26-3.16-6.78-6.18-10.42-8.5l-.04-.03c-1.85-1.18-2.39-3.63-1.21-5.48,1.18-1.85,3.63-2.39,5.48-1.21h0Z"/><path class="cls-3" d="m266.36,47.51c1.25.94,2.29,1.79,3.37,2.71,1.07.9,2.09,1.84,3.12,2.78,1.01.95,2,1.92,2.99,2.88.96,1,1.93,1.98,2.87,2.98,3.77,4.03,7.21,8.34,10.33,12.85,1.61,2.22,3,4.6,4.45,6.91l1.98,3.6c.32.6.67,1.19.97,1.8l.88,1.86c2.46,4.88,4.21,10.08,5.8,15.26.17.57-.15,1.17-.72,1.34-.54.16-1.1-.11-1.31-.62l-.02-.06c-2-4.91-4.13-9.74-6.92-14.22l-1-1.7c-.34-.56-.73-1.1-1.09-1.65l-2.2-3.27c-1.6-2.09-3.11-4.23-4.84-6.2-3.35-4.02-6.98-7.81-10.87-11.28l-2.95-2.56c-1.01-.82-2.01-1.64-3.03-2.44-1.03-.78-2.06-1.57-3.11-2.3-1.02-.74-2.14-1.48-3.09-2.07l-.08-.05c-1.87-1.15-2.45-3.6-1.3-5.47,1.15-1.87,3.6-2.45,5.47-1.3.1.06.2.13.3.2Z"/><path class="cls-6" d="m584.16,231.22c-1.45,4.96-5.54,8.93-10.33,10.86-4.8,1.94-10.22,1.97-15.25.77-5.26-1.26-10.14-3.9-14.16-7.5-3.37-3.02-6.14-6.72-8-10.86-5.36-11.93-3.14-25.73-.94-38.63,2.19-12.84,2.39-24.81-2.13-38.32-.02-.05-.03-.1-.05-.16l20.37,12.94,10.25,6.52c2.05,9.95,5.03,19.72,8.89,29.11,1.67,4.07,3.51,8.08,5.51,12,3.73,7.31,8.15,15.39,5.85,23.27Z"/><path class="cls-3" d="m537.06,146.11c1.44,4.31,2.53,8.77,3.17,13.3.63,4.53.84,9.11.64,13.64-.17,4.53-.74,8.99-1.47,13.37-.72,4.25-1.42,8.43-1.86,12.57-.89,8.24-.73,16.47,2.34,23.48,2.97,6.92,8.96,12.64,16.02,15.35,3.52,1.35,7.33,2.01,10.93,1.72,3.62-.28,6.93-1.54,9.44-3.77,1.26-1.1,2.28-2.4,3-3.79.69-1.39,1.08-2.88,1.17-4.49.17-3.2-.88-6.83-2.5-10.49-.79-1.85-1.7-3.72-2.65-5.64-.96-1.91-1.94-3.96-2.83-5.97-1.81-4.04-3.47-8.15-4.84-12.35-2.75-8.4-4.53-17.13-4.76-25.97-.02-.6.46-1.11,1.06-1.12.47-.01.87.27,1.04.68h0c3.28,8.08,6.3,16,9.69,23.75,1.69,3.87,3.39,7.73,5.28,11.49.96,1.89,1.9,3.71,2.91,5.64,1.01,1.92,2.04,3.91,3,6.02.93,2.11,1.79,4.35,2.41,6.77.62,2.41.97,5.04.78,7.75-.17,2.69-.91,5.47-2.23,7.9-1.31,2.42-3.07,4.51-5.11,6.21-2.03,1.69-4.34,3.03-6.81,3.93-2.44.9-4.97,1.39-7.47,1.57-5.02.33-9.91-.62-14.43-2.4-9.01-3.58-16.53-10.65-20.4-19.62-1.91-4.44-2.94-9.17-3.28-13.81-.39-4.65-.13-9.22.33-13.67.47-4.45,1.21-8.79,1.93-13.05.69-4.14,1.21-8.26,1.36-12.37.18-4.1-.01-8.18-.57-12.21-.57-4.02-1.54-7.99-2.83-11.87v-.03c-.7-2.08.42-4.33,2.51-5.02s4.33.43,5.02,2.51Z"/><path class="cls-4" d="m510.63,333.32c2.7,12.87,6.74,25.73,6.1,38.87-.18,3.93-.83,7.93-2.81,11.32-1.97,3.39-5.48,6.09-9.4,6.22-5.74.2-10.33-4.9-12.57-10.19-1.41-3.35-2.25-6.95-3.4-10.4-.56-1.73-1.2-3.42-2.05-5.02-.12-.25-.25-.48-.39-.73-4.48-7.92-14.17-12.52-23.12-10.96l26.76-31.27,22.71-26.54c-5.31,10.86-4.69,23.54-2.46,35.52.19,1.06.4,2.12.63,3.18Z"/><path class="cls-3" d="m513.43,295.09c-2.07,6.38-2.48,12.92-2.01,19.42.48,6.51,1.86,12.96,3.45,19.46,1.61,6.52,3.43,13.17,4.67,20.12,1.22,6.97,1.84,14.18.96,21.65-.49,3.77-1.57,7.84-4.22,11.43-1.32,1.76-2.96,3.28-4.9,4.48-1.95,1.19-4.3,1.98-6.78,2.08-2.45.09-4.9-.54-6.95-1.59-2.05-1.06-3.75-2.49-5.17-4.03-1.43-1.55-2.59-3.25-3.54-5.04-.96-1.85-1.65-3.62-2.22-5.36-1.14-3.47-1.88-6.73-2.92-9.55-.5-1.42-1.1-2.72-1.8-3.88-.72-1.18-1.56-2.31-2.53-3.36-3.94-4.18-9.69-7.07-16.28-7.44h-.03c-.6-.04-1.07-.55-1.03-1.16.03-.44.31-.81.7-.96,1.71-.66,3.56-1.06,5.44-1.2,1.89-.14,3.79.04,5.69.36,1.88.39,3.73.99,5.51,1.81,1.77.84,3.44,1.9,5,3.15,1.54,1.26,2.93,2.75,4.14,4.39,1.19,1.68,2.14,3.45,2.9,5.21,1.51,3.53,2.36,6.94,3.36,9.96.51,1.51,1.01,2.94,1.62,4.13.62,1.23,1.36,2.41,2.22,3.4.85.99,1.8,1.82,2.77,2.37.97.53,1.93.78,2.9.79.94-.01,1.94-.32,2.92-.88.97-.57,1.87-1.43,2.59-2.41,1.42-1.96,2.25-4.7,2.58-7.67.19-1.49.21-3.08.23-4.67,0-1.59-.08-3.19-.2-4.79-.26-3.21-.73-6.44-1.34-9.69-1.18-6.5-2.82-13.1-4.11-19.93-1.31-6.84-2.13-13.97-1.72-21.14.4-7.13,2.2-14.45,6.18-20.39.33-.5,1.01-.63,1.51-.3.41.28.58.79.43,1.24h0Z"/><path class="cls-4" d="m448.27,419.43c3,11.03,4.05,24.4-4.6,31.68-3.2,2.69-7.47,4.21-9.82,7.67-3.09,4.53-1.82,10.6-2.7,16.01-1.64,10.09-10.96,17.43-20.73,20.49-5.36,1.67-10.93,2.36-16.54,2.8-4.62.37-9.26.58-13.85,1.02-10.19,1.01-20.86,3.59-28.03,10.89l12.24-16.28,62.08-82.58,20.05-26.68c-5.68,10.18-1.59,22.74,1.61,33.95.1.34.19.67.29,1.02Z"/><path class="cls-3" d="m447.31,384.99c-2.62,7.25-1.06,14.65,1.1,21.95l1.78,5.54c.61,1.88,1.27,3.7,1.87,5.69.62,1.99,1.13,4.04,1.59,6.1.38,2.09.75,4.19.91,6.37.35,4.31.08,8.89-1.39,13.39-.75,2.25-1.89,4.43-3.31,6.43-.8.94-1.53,1.94-2.47,2.74-.88.85-1.84,1.65-2.78,2.29-1.87,1.3-3.62,2.25-4.99,3.22-1.39.98-2.3,1.85-2.85,2.92-.57,1.09-.89,2.52-1.04,4.24-.15,1.72-.14,3.65-.23,5.78-.05,1.07-.12,2.17-.29,3.35-.06.58-.22,1.17-.33,1.76-.11.59-.25,1.17-.44,1.74-.65,2.31-1.67,4.48-2.93,6.45-2.5,3.97-5.89,7.15-9.62,9.59-3.71,2.44-7.87,4.23-12.05,5.37-4.17,1.1-8.35,1.7-12.45,2.02-8.19.68-16.05.41-23.56,1.34-7.52.88-14.9,2.83-21.07,7.5h-.02c-.48.38-1.16.28-1.52-.2-.3-.4-.29-.93,0-1.31,1.26-1.66,2.74-3.17,4.37-4.53,1.64-1.33,3.42-2.51,5.28-3.51,3.72-2.02,7.75-3.38,11.79-4.37,4.05-.96,8.16-1.54,12.16-1.94,4-.44,7.93-.73,11.74-1.19,1.9-.25,3.78-.5,5.63-.83,1.84-.33,3.63-.75,5.39-1.23,3.49-.94,6.72-2.33,9.66-4.24,2.9-1.91,5.51-4.22,7.29-6.97.91-1.35,1.63-2.8,2.09-4.31.47-1.51.71-3.03.79-4.9.1-1.84.11-3.88.32-6.13.22-2.23.7-4.77,2-7.21.66-1.2,1.49-2.36,2.4-3.3.91-.95,1.88-1.73,2.81-2.41,1.87-1.34,3.61-2.32,4.98-3.32.7-.49,1.25-.98,1.78-1.53.58-.49.98-1.15,1.47-1.72.82-1.28,1.52-2.65,1.99-4.2.43-1.56.8-3.17.89-4.91.11-.84.08-1.74.13-2.61-.04-.89,0-1.77-.1-2.68-.21-3.6-.85-7.29-1.72-10.96-.87-3.76-1.95-7.72-2.62-11.78-.33-2.05-.66-4.1-.76-6.22-.09-1.04-.08-2.12-.11-3.18.04-1.08.04-2.13.18-3.21.36-4.27,1.83-8.58,4.39-11.95.36-.48,1.04-.57,1.52-.21.39.29.52.8.37,1.23v.03Z"/><path class="cls-4" d="m75.61,305.36c15.94,17.13,3.53,48.87,19.65,65.84,8.54,9,22.15,10.43,34.54,11.12,12.39.69,25.91,1.64,35,10.07"/><g class="cls-10"><path class="cls-1" d="m164.79,392.39c-9.09-8.44-22.61-9.38-35-10.07-12.39-.7-26-2.13-34.53-11.12-16.12-16.97-3.71-48.7-19.65-65.84l6.2,6.05c7.75,7.56,12.58,17.57,13.85,28.32,1.04,8.78,3.11,17.03,9.04,23.28,8.54,9,22.15,10.44,34.53,11.12h.07c4.65.28,9.05,2.22,12.39,5.48l13.09,12.77Z"/></g><path class="cls-3" d="m76.4,304.63c2.52,1.94,4.62,4.49,6.27,7.27,1.66,2.79,2.85,5.82,3.78,8.87.88,3.06,1.54,6.15,1.99,9.21.49,3.06.82,6.09,1.14,9.08.62,5.96,1.04,11.76,2.33,17.12,1.27,5.34,3.65,10.15,7.54,13.52,3.84,3.41,8.96,5.36,14.41,6.5,5.48,1.15,11.26,1.61,17.23,2.16,6.03.55,12.27,1.31,18.38,3.18l2.27.77,2.24.88,2.18,1.03,2.12,1.16c2.76,1.67,5.29,3.74,7.26,6.24.37.47.29,1.16-.18,1.53-.38.3-.9.3-1.28.05-4.89-3.26-10.35-4.85-15.99-5.69-5.65-.83-11.48-.94-17.46-1.08-6.04-.12-12.33-.51-18.62-1.98-3.14-.74-6.29-1.75-9.34-3.18-3.04-1.42-5.97-3.29-8.55-5.61-2.58-2.32-4.74-5.1-6.41-8.07-1.69-2.98-2.89-6.13-3.78-9.27-1.78-6.31-2.31-12.58-2.61-18.61-.29-6.04-.31-11.91-1.07-17.56-.71-5.66-2.22-11.09-5.42-16.02h0c-.33-.51-.18-1.19.32-1.52.4-.26.9-.22,1.26.05Z"/><path class="cls-4" d="m199.1,418.37c10.11,10.41,11.47,26.4,10.77,40.9-.69,14.5-2.76,29.57,2.46,43.12,2.48,6.43,8.26,12.99,15.01,11.61,6.52-1.33,9.36-9.08,9.8-15.72.55-8.32-.83-16.64-.89-24.97-.07-8.33,1.39-17.14,6.74-23.54"/><g class="cls-10"><path class="cls-1" d="m232.31,511.19c-1.34,1.39-2.98,2.39-4.97,2.8-6.75,1.38-12.53-5.18-15.02-11.61-5.21-13.55-3.15-28.62-2.45-43.12.7-14.5-.66-30.49-10.77-40.91l1.85,1.33c11.75,8.41,18.56,22.17,17.9,36.6,0,.09,0,.17-.01.26-.7,14.5-2.76,29.58,2.45,43.12,1.97,5.12,6.04,10.32,11.02,11.53Z"/></g><path class="cls-3" d="m199.87,417.62c3.07,2.36,5.61,5.47,7.58,8.87,1.99,3.41,3.38,7.13,4.39,10.91.95,3.79,1.59,7.64,1.86,11.48.15,1.92.24,3.84.28,5.75.02,1.91,0,3.83-.06,5.7-.09,3.75-.34,7.45-.48,11.09-.2,3.64-.34,7.24-.29,10.78.07,3.54.27,7.02.82,10.4.12.85.28,1.69.47,2.51.16.84.37,1.65.6,2.46.2.82.47,1.62.75,2.41.27.83.54,1.53.87,2.23,1.28,2.79,3.25,5.4,5.43,6.84,1.08.73,2.18,1.12,3.2,1.12,1.02.02,2.07-.27,2.94-.83,1.81-1.1,3.23-3.82,3.97-6.78.37-1.5.62-3.06.7-4.64.11-1.7.13-3.43.11-5.19-.05-7.02-.84-14.53-.1-22.35.19-1.95.47-3.9.92-5.82.43-1.93.97-3.84,1.73-5.69,1.45-3.69,3.66-7.18,6.59-9.78.45-.4,1.14-.36,1.54.09.32.36.36.87.13,1.27v.02c-3.61,6.2-4.38,13.19-4.16,20.16.23,6.98,1.61,14.19,1.83,21.95.04,1.94.03,3.9-.1,5.89-.15,2.1-.49,4.21-1.08,6.28-.59,2.07-1.41,4.14-2.63,6.13-1.22,1.97-2.86,3.92-5.13,5.31-2.26,1.4-4.94,2.1-7.61,1.97-2.69-.11-5.16-1.13-7.16-2.41-2.02-1.3-3.64-2.9-5.02-4.61-1.37-1.71-2.5-3.55-3.42-5.5-.47-.98-.87-1.99-1.19-2.92-.34-.95-.69-1.9-.95-2.87-.3-.96-.57-1.93-.78-2.9-.24-.97-.46-1.95-.62-2.92-.72-3.91-1.06-7.82-1.12-11.67-.07-3.85.06-7.65.26-11.39l.82-11.05c.5-7.19.72-14.31-.22-21.25-.87-6.93-2.97-13.66-7.19-19.54-.35-.49-.24-1.17.24-1.52.4-.29.93-.26,1.3.02Z"/><path class="cls-4" d="m339.68,533.14c.08,4.38,1.8,8.55,2.57,12.86.29,1.6.4,3.32.27,4.97-.24,2.78-1.19,5.41-3.27,7.2-3.69,3.15-9.68,2.56-13.11,5.98-3.31,3.29-2.76,8.79-1.31,13.23,1.45,4.44,3.6,8.98,2.75,13.57-1.51,8.08-12.33,11.64-19.76,8.11-7.44-3.53-11.59-11.66-13.43-19.68-.33-1.42-.59-2.84-.82-4.28-1.74-11.21-.58-22.77-.68-34.16-.01-1.61-.06-3.23-.15-4.86-.61-11.37-3.18-22.91-10.72-31.26l49.97,14.07,14.16,3.99c-4.27.97-6.53,5.88-6.46,10.26Z"/><path class="cls-3" d="m282.81,504.1c3.66,2.73,6.64,6.5,8.73,10.64,2.15,4.14,3.53,8.6,4.38,13.1.82,4.5,1.21,9.03,1.24,13.5.05,4.45-.19,8.82-.36,13.11-.19,4.3-.22,8.52-.05,12.68.23,4.14.72,8.24,1.69,12.11.96,3.82,2.45,7.49,4.57,10.52,1.06,1.51,2.27,2.84,3.63,3.92,1.35,1.07,2.91,1.93,4.33,2.33,2.99.89,6.7.34,9.3-1.3,1.31-.81,2.28-1.87,2.81-3.04.11-.3.29-.57.33-.9.08-.31.18-.61.21-.97.08-.69.06-1.43-.05-2.23-.21-1.6-.79-3.41-1.51-5.37l-1.12-3.11c-.39-1.12-.76-2.37-1.03-3.61-.52-2.51-.78-5.26-.12-8.28.33-1.5.96-3.05,1.94-4.45.96-1.39,2.27-2.58,3.61-3.41,2.72-1.66,5.21-2.11,7.17-2.68,2.01-.52,3.38-1.11,4.15-1.76.8-.65,1.43-1.78,1.74-3.31.31-1.52.33-3.29.09-5.09-.26-1.89-.7-3.95-1.11-6.18-.43-2.22-.71-4.66-.56-7.2.2-2.66,1.04-5.17,2.57-7.3,1.47-2.12,3.91-3.86,6.52-3.97.6-.03,1.11.44,1.14,1.05.02.45-.23.84-.61,1.03l-.05.03c-1.68.83-2.7,2.3-3.3,3.95-.58,1.66-.77,3.5-.53,5.17.21,1.8.81,3.63,1.42,5.61.64,1.98,1.42,4.07,1.96,6.45.55,2.45.78,5.08.36,7.83-.21,1.38-.59,2.8-1.24,4.19-.64,1.39-1.57,2.75-2.77,3.88-1.19,1.13-2.56,1.96-3.85,2.53-1.29.59-2.5.97-3.59,1.29-2.18.64-3.98,1.17-4.97,1.81-.95.63-1.37,1.26-1.71,2.49-.3,1.22-.27,2.89.08,4.61.17.88.39,1.71.69,2.65l1.01,3.03c.71,2.12,1.47,4.46,1.77,7.17.15,1.35.16,2.79-.04,4.25-.08.72-.28,1.47-.49,2.2-.17.75-.52,1.43-.82,2.13-1.32,2.77-3.51,4.93-5.89,6.36-2.4,1.46-5.01,2.31-7.67,2.66-2.66.34-5.4.2-8.07-.57-2.75-.81-5.01-2.14-7.06-3.74-2.04-1.61-3.76-3.53-5.19-5.56-2.85-4.09-4.63-8.6-5.78-13.17-2.21-9.09-2.22-18.18-2.18-26.89l.06-12.88c-.03-4.19-.13-8.33-.56-12.41-.43-4.07-1.03-8.1-2.13-12-1.05-3.93-2.64-7.68-4.71-11.44l-.02-.03c-.29-.53-.1-1.2.43-1.49.39-.21.85-.17,1.19.08Z"/><g class="cls-8"><path class="cls-3" d="m572.8,195.95c1.67,4.07,3.51,8.08,5.51,12,3.73,7.31,8.15,15.39,5.85,23.27-1.45,4.96-5.54,8.93-10.33,10.86-4.8,1.94-10.22,1.97-15.25.77-5.26-1.26-10.14-3.9-14.16-7.5-3.59-4.95-6.59-10.39-9.05-16.17,5.41,3.59,13.29,1.05,17.15-4.17,3.87-5.21,4.44-12.22,3.56-18.65-.09-.67-.19-1.33-.31-2-.98-5.72-2.81-11.31-3.72-17.06-.91-5.7-.85-11.83,1.61-16.97.31-.65.66-1.28,1.05-1.89,2.81-4.43,7.38-7.37,11.75-10.26,4.37-2.89,8.09-6.55,11.27-10.71,4.19-5.47,4.82-13.32.55-16.36l2.03-1.59c6.2,14.8,10.5,30.33,12.87,46.3,2.07,13.99-7.01,26.96-20.38,30.13Z"/></g><g class="cls-8"><path class="cls-3" d="m494.22,89.6c-40.35-35.45-99.17-44.84-146.49-9.62-1.66,5.02-2.59,10.26-2.67,15.55-.12,7.76,1.45,15.57.26,23.23-1.18,7.67-6.22,15.6-13.91,16.65-4.02.55-8.39-.81-12.02,1.02-6.04,3.05-5.28,11.91-8.7,17.75-3.95,6.7-13.54,8.39-20.67,5.3-7.13-3.09-12.09-9.78-15.51-16.76-3.43-6.99-4.22-11.62-7.88-18.47-1.16-2.17-2.98-4.66-5.15-7.22.57-.11,1.14-.2,1.7-.27.8-.11,1.59-.18,2.39-.23,3.77,4.42,7.61,8.9,12.43,12.14.88.6,1.82,1.16,2.78,1.64,4.25,2.21,9.1,3.29,13.73,2.26,3.24-.73,6.03-2.38,8.53-4.52,3.38-2.87,6.22-6.64,8.82-10.26,3.79-5.27,7.63-10.62,9.97-16.67,3.08-8.01,3.37-16.82,5.8-25.04.93-3.16,2.2-6.19,3.78-9.06,8.94-16.31,27.43-27.37,46.13-26.51,4.55.21,8.89,1.35,13.3.22,9.54-2.43,18.63-6.58,28.31-8.31,9.69-1.74,20.64-.61,27.76,6.18,4.08,3.88,6.55,9.3,11.02,12.74,4.59,3.54,10.62,4.48,15.96,6.75,12.2,5.2,20.36,18.34,20.31,31.5Z"/></g><g class="cls-8"><path class="cls-3" d="m259.14,113.14c-3.54-3.06-7.12-5.88-10.72-8.46-1.09-.78-2.17-1.53-3.26-2.26-47.5-32.09-99.19-24.48-136.21,5.03-.78,4.78-.71,9.67.31,14.43.86,3.99,2.31,7.89,2.42,11.97.11,4.08-1.52,8.56-5.19,10.34-5,2.4-11.5-1.08-16.31,1.67-2.76,1.58-4.1,4.75-5.94,7.35-3.7,5.29-9.78,8.54-16.05,10.1-.15.04-.3.07-.44.1-7.25,18.19-10.83,38.42-9.66,59.63.78,14.04-10.18,26.71-24.18,28.14-12.69,1.29-24.16-6.43-28.17-17.88,3.1,1.65,6.75,2.37,10.24,1.94,6.8-.83,12.78-5.49,16.16-11.44,3.39-5.95,4.38-13.05,3.85-19.87-.53-6.83-4.06-14.29-5.45-21-2.54-12.13,4.75-25.57,16.3-30.08,3.53-1.37,7.32-1.98,10.97-3.02.53-.15,1.06-.32,1.58-.5,4.13-1.37,8.22-3.85,9.95-7.83,1.23-2.84,1.17-6.22,2.96-8.73,1.73-2.43,4.76-3.46,7.33-4.97,6.41-3.75,9.24-11.54,9.23-18.97,0-11.37,4.77-22.64,12.9-30.58.12-.12.25-.24.38-.35,8.09-7.72,19.31-12.07,30.5-11.81,7.8.19,15.47,2.49,23.28,2.42,8.57-.08,16.83-3.04,25.16-5.11,8.33-2.07,17.39-3.23,25.29.14,4.91,2.09,8.97,5.76,13.61,8.4,5.1,2.89,10.86,4.49,15.88,7.49,11.95,7.15,17.98,20.88,23.27,33.75Z"/></g><g class="cls-8"><path class="cls-3" d="m527.62,304.65l-17.62,25.49c.19,1.06.4,2.12.63,3.18,2.7,12.87,6.74,25.73,6.1,38.87-.18,3.93-.83,7.93-2.81,11.32-1.97,3.39-5.48,6.09-9.4,6.22-5.74.2-10.33-4.9-12.57-10.19-1.41-3.35-2.25-6.95-3.4-10.4,4.1,1.03,8.63-1.91,10.39-5.84,1.88-4.2,1.35-9.06.28-13.52-.24-1.01-.44-2.08-.62-3.15-.62-3.66-1.06-7.54-2.56-10.77-2.23-4.79-4.5-9.69-6.28-14.7-2.36-6.56-3.91-13.3-3.56-20.23.42-8.42,3.89-16.83,10.21-22.4,6.33-5.58,15.57-7.97,23.56-5.28,7.98,2.69,14.08,10.78,13.63,19.2.45.29.89.58,1.33.88-2.29,3.83-4.73,7.6-7.31,11.33Z"/></g><g class="cls-8"><path class="cls-3" d="m448.27,419.43c3,11.03,4.05,24.4-4.6,31.68-3.2,2.69-7.47,4.21-9.82,7.67-3.09,4.53-1.82,10.6-2.7,16.01-1.64,10.09-10.96,17.43-20.73,20.49-5.36,1.67-10.93,2.36-16.54,2.8l-22.76,32.92c-6.89,9.96-17.06,16.99-28.6,19.96-.24,2.78-1.19,5.41-3.27,7.2-3.69,3.15-9.68,2.56-13.11,5.98-3.31,3.29-2.76,8.79-1.31,13.23,1.45,4.44,3.6,8.98,2.75,13.57-1.51,8.08-12.33,11.64-19.76,8.11-7.44-3.53-11.59-11.66-13.43-19.68-.33-1.42-.59-2.84-.82-4.28.2.16.41.33.63.48,4.23,2.97,10.53,3.41,14.33-.1,2.9-2.67,3.76-6.89,3.82-10.82.07-3.94-.47-7.92.28-11.78.21-1.06.5-2.1.88-3.11,1.2-3.29,3.25-6.27,5.93-8.38,3.29-2.59,5.88-5.97,7.06-9.99,1.29-4.37,3.14-8.58,5.47-12.5,6.08-10.3,15.46-18.68,26.56-23.16,1.87-.76,3.77-1.41,5.7-2.01,6.13-1.91,12.43-3.31,18.28-5.92,7.69-3.44,17.83-11.06,17.21-19.47-.76-10.28,3.14-20.82,10.39-28.15,4.64-4.69,10.67-8.25,13.8-14.07,2.48-4.59,2.73-9.71,2.39-14.96-.35-5.15-1.28-10.45-1.3-15.56-.04-13.94,7.61-27.65,19.48-34.94,11.87-7.3,27.56-7.94,39.98-1.62.06,2.34.31,4.67.74,6.97l-36.95,53.45Z"/></g><circle class="cls-2" cx="316.65" cy="415.28" r="34.12"/><g class="cls-8"><path class="cls-3" d="m370.26,403.06c9.24,16.43,3.41,37.23-13.02,46.47-11.17,6.28-24.37,5.6-34.56-.66,3.67-.64,7.28-1.91,10.7-3.84,16.43-9.24,22.25-30.05,13.02-46.47-2.96-5.25-7.1-9.42-11.9-12.36,13.89-2.51,28.45,3.85,35.76,16.85Z"/></g><g class="cls-10"><path class="cls-1" d="m298.51,431.33c5.58,9.92,15.4,15.99,25.91,17.18-14.4,3.38-29.89-2.97-37.5-16.5-9.24-16.43-3.42-37.24,13.01-46.48,6.5-3.66,13.68-4.95,20.56-4.15-3.07.71-6.08,1.87-8.97,3.49-16.43,9.24-22.25,30.04-13.02,46.47Z"/></g><path class="cls-3" d="m320.57,453.17c-14.63,1.49-29.46-5.6-37.12-19.22-4.99-8.87-6.22-19.15-3.48-28.95,2.74-9.8,9.14-17.94,18.01-22.93,8.87-4.99,19.15-6.22,28.95-3.48,9.8,2.74,17.94,9.14,22.93,18.01,10.3,18.31,3.78,41.58-14.53,51.87-4.69,2.64-9.71,4.17-14.75,4.69Zm-6.99-67.9c-4.07.41-8.04,1.67-11.71,3.73-7.02,3.95-12.08,10.39-14.25,18.15-2.17,7.76-1.19,15.89,2.75,22.91,8.15,14.49,26.57,19.65,41.06,11.5,7.02-3.95,12.08-10.39,14.25-18.15,2.17-7.76,1.19-15.89-2.75-22.91-3.95-7.02-10.39-12.08-18.15-14.25-3.7-1.04-7.49-1.36-11.2-.98Z"/><g class="cls-8"><circle class="cls-3" cx="319.26" cy="424.2" r="4.98" transform="translate(-175.33 617.2) rotate(-74.35)"/></g><g class="cls-8"><circle class="cls-3" cx="324.18" cy="404.74" r="7.41" transform="translate(-191.25 347.77) rotate(-45)"/></g><path class="cls-2" d="m427.64,237.8c-15.38,3.31-30.6-1.89-40.76-12.44-.01,0-.04-.03-.05-.05-5.44-5.66-9.42-12.84-11.2-21.07-5.09-23.63,9.93-46.91,33.56-52.01,5.88-1.27,11.74-1.3,17.3-.24,16.78,3.16,30.88,16.06,34.71,33.8,5.09,23.63-9.94,46.9-33.56,52.01Z"/><g class="cls-8"><path class="cls-3" d="m488.73,200.35c5.1,23.63-9.93,46.91-33.56,52.01-16.07,3.47-31.99-2.38-42.1-13.9,4.73.61,9.64.41,14.57-.65,23.63-5.1,38.65-28.39,33.56-52.01-1.63-7.56-5.13-14.23-9.9-19.65,17.97,2.19,33.4,15.5,37.44,34.2Z"/></g><g class="cls-10"><path class="cls-1" d="m386.97,204.86c3.08,14.28,12.81,25.43,25.24,30.87-9.44-.66-18.3-4.38-25.33-10.37-.01,0-.04-.03-.05-.05-5.44-5.66-9.42-12.84-11.2-21.07-5.09-23.63,9.93-46.91,33.56-52.01,5.88-1.27,11.74-1.3,17.3-.24-1.98.15-3.97.44-5.96.87-23.64,5.1-38.66,28.37-33.56,52Z"/></g><path class="cls-3" d="m423.22,242.51c-23.86,2.43-46.3-13.46-51.47-37.43-5.55-25.73,10.87-51.18,36.6-56.73,25.74-5.54,51.18,10.87,56.73,36.6,5.55,25.73-10.87,51.18-36.6,56.73-1.75.38-3.51.66-5.25.83Zm-8.77-87.1c-1.48.15-2.95.38-4.43.7-21.45,4.63-35.14,25.84-30.51,47.29,2.24,10.39,8.39,19.29,17.33,25.05,8.93,5.76,19.57,7.7,29.96,5.46,10.39-2.24,19.29-8.39,25.05-17.33,5.76-8.93,7.7-19.57,5.46-29.96-2.24-10.39-8.39-19.29-17.33-25.05-7.67-4.95-16.59-7.08-25.54-6.16Z"/><g class="cls-8"><circle class="cls-3" cx="418.23" cy="206.93" r="6.39" transform="translate(17.61 446.17) rotate(-57.17)"/></g><g class="cls-8"><circle class="cls-3" cx="431.63" cy="184.95" r="9.51"/></g><path class="cls-4" d="m294.7,368.82c2.76-.88,5.81.57,7.79,2.69,1.98,2.12,3.19,4.82,4.67,7.31,3.37,5.67,8.54,10.52,14.89,12.3,6.35,1.78,13.88,0,17.88-5.25,3.1-4.06,3.75-9.4,4.63-14.43s2.35-10.41,6.4-13.51"/><g class="cls-10"><path class="cls-1" d="m343.66,376.5c-.68,3.37-1.67,6.66-3.74,9.37-4.01,5.24-11.52,7.04-17.88,5.25-6.35-1.78-11.52-6.63-14.89-12.29-1.48-2.49-2.69-5.2-4.67-7.32-1.69-1.8-4.15-3.12-6.56-2.92l9.61-1.87c2.18-.42,4.36.6,5.5,2.51,0,.01.01.02.02.03,3.36,5.67,8.53,10.52,14.88,12.3,6.27,1.76,13.68.04,17.73-5.05Z"/></g><path class="cls-3" d="m294.4,367.87c.95-.58,2.11-.88,3.27-.9,1.16-.01,2.31.21,3.38.6,1.06.41,2.07.96,3,1.65.92.72,1.69,1.47,2.39,2.28,1.4,1.6,2.45,3.25,3.43,4.67.96,1.39,1.92,2.63,2.99,3.83,2.12,2.37,4.59,4.3,7.21,5.58,2.65,1.29,5.32,1.91,8.12,1.72,2.76-.18,5.51-1.05,7.47-2.75.96-.84,1.82-1.83,2.53-3.11.72-1.25,1.26-2.74,1.79-4.33,1.02-3.17,1.67-6.89,3.1-10.59.7-1.83,1.59-3.66,2.78-5.31,1.18-1.66,2.72-3.11,4.49-4.06.49-.26,1.1-.08,1.36.4.21.38.14.83-.13,1.14l-.03.03c-2.25,2.56-3.14,5.77-3.66,9.12-.52,3.34-.52,6.93-1.18,10.85-.31,1.96-.82,3.98-1.69,6.02-.83,2.03-2.12,4.06-3.8,5.73-3.35,3.36-7.8,5.22-12.27,5.69-2.24.23-4.52.13-6.76-.34-2.25-.5-4.31-1.28-6.23-2.34-3.86-2.08-6.98-5.09-9.4-8.4-1.22-1.65-2.27-3.46-3.11-5.24-.82-1.75-1.43-3.35-2.12-4.75-.71-1.4-1.38-2.57-2.46-3.53-1.05-.98-2.31-1.67-3.88-1.75h-.13c-.56-.04-.99-.52-.96-1.08.02-.34.21-.64.48-.81Z"/><circle class="cls-2" cx="170.03" cy="201.58" r="34.12" transform="translate(-23.4 22.33) rotate(-7.03)"/><g class="cls-8"><path class="cls-3" d="m223.63,189.36c9.24,16.43,3.41,37.23-13.02,46.47-11.17,6.28-24.37,5.6-34.56-.66,3.67-.64,7.28-1.91,10.7-3.84,16.43-9.24,22.25-30.05,13.02-46.47-2.96-5.25-7.1-9.42-11.9-12.36,13.89-2.51,28.45,3.85,35.76,16.85Z"/></g><g class="cls-10"><path class="cls-1" d="m151.88,217.63c5.58,9.92,15.4,15.99,25.91,17.18-14.4,3.38-29.89-2.97-37.5-16.5-9.24-16.43-3.42-37.24,13.01-46.48,6.5-3.66,13.68-4.95,20.56-4.15-3.07.71-6.08,1.87-8.97,3.49-16.43,9.24-22.25,30.04-13.02,46.47Z"/></g><path class="cls-3" d="m173.9,239.49c-4.69.48-9.48.07-14.15-1.23-9.8-2.74-17.94-9.14-22.93-18.01-4.99-8.87-6.22-19.15-3.48-28.95,2.74-9.8,9.14-17.94,18.01-22.93,8.87-4.99,19.15-6.22,28.95-3.48,9.8,2.74,17.94,9.14,22.93,18.01,4.99,8.87,6.22,19.15,3.48,28.95-2.74,9.8-9.14,17.94-18.01,22.93-4.64,2.61-9.66,4.19-14.79,4.71Zm-6.95-67.93c-4.07.41-8.04,1.67-11.71,3.73-7.02,3.95-12.08,10.39-14.25,18.15-2.17,7.76-1.19,15.89,2.75,22.91,3.95,7.02,10.39,12.08,18.15,14.25,7.76,2.17,15.89,1.2,22.91-2.75,7.02-3.95,12.08-10.39,14.25-18.15,2.17-7.76,1.19-15.89-2.75-22.91h0c-3.95-7.02-10.39-12.08-18.15-14.25-3.7-1.04-7.49-1.36-11.2-.98Z"/><g class="cls-8"><circle class="cls-3" cx="172.63" cy="210.49" r="4.98" transform="translate(-65.69 342.07) rotate(-79.55)"/></g><g class="cls-8"><circle class="cls-3" cx="177.55" cy="191.04" r="7.41" transform="translate(-21.46 359.6) rotate(-87.36)"/></g><path class="cls-4" d="m148.07,155.11c2.76-.88,5.81.57,7.79,2.69,1.98,2.12,3.19,4.82,4.67,7.31,3.37,5.67,8.54,10.52,14.89,12.3,6.35,1.78,13.88,0,17.88-5.25,3.1-4.06,3.75-9.4,4.63-14.43.88-5.03,2.35-10.41,6.4-13.51"/><g class="cls-10"><path class="cls-1" d="m197.03,162.8c-.68,3.37-1.67,6.66-3.74,9.37-4.01,5.24-11.52,7.04-17.88,5.25-6.35-1.78-11.52-6.63-14.89-12.29-1.48-2.49-2.69-5.2-4.67-7.32-1.69-1.8-4.15-3.12-6.56-2.92l9.61-1.87c2.18-.42,4.36.6,5.5,2.51,0,.01.01.02.02.03,3.36,5.67,8.53,10.52,14.88,12.3,6.27,1.76,13.68.04,17.73-5.05Z"/></g><path class="cls-3" d="m147.77,154.17c.95-.58,2.11-.88,3.27-.9,1.16-.01,2.31.21,3.38.6,1.06.41,2.07.96,3,1.65.92.72,1.69,1.47,2.39,2.28,1.4,1.6,2.45,3.25,3.43,4.67.96,1.39,1.92,2.63,2.99,3.83,2.12,2.37,4.59,4.3,7.21,5.58,2.65,1.29,5.32,1.91,8.12,1.72,2.76-.18,5.51-1.05,7.47-2.75.96-.84,1.82-1.83,2.53-3.11.72-1.25,1.26-2.74,1.79-4.33,1.02-3.17,1.67-6.89,3.1-10.59.7-1.83,1.59-3.66,2.78-5.31,1.18-1.66,2.72-3.11,4.49-4.06.49-.26,1.1-.08,1.36.4.21.38.14.83-.13,1.14l-.03.03c-2.25,2.56-3.14,5.77-3.66,9.12-.52,3.34-.52,6.93-1.18,10.85-.31,1.96-.82,3.98-1.69,6.02-.83,2.03-2.12,4.06-3.8,5.73-3.35,3.36-7.8,5.22-12.27,5.69-2.24.23-4.52.13-6.76-.34-2.25-.5-4.31-1.28-6.23-2.34-3.86-2.08-6.98-5.09-9.4-8.4-1.22-1.64-2.27-3.46-3.11-5.24-.82-1.75-1.43-3.35-2.12-4.75-.71-1.4-1.38-2.57-2.46-3.53-1.05-.98-2.31-1.67-3.89-1.75h-.13c-.56-.04-.99-.52-.96-1.08.02-.34.21-.64.49-.81Z"/><g class="cls-8"><path class="cls-3" d="m279.94,222.52c-6.41,10.46,1.41,15.4,12.14,19.97,4.1,1.75,5.5,6.85,2.87,10.45-2.61,3.57-5.91,7.85-9.15,11.39-6.97,7.62,6.16,12.6,6.16,12.6l2.04.98s12.09,7.15,13.69-3.06c.75-4.79,2.05-10.11,3.22-14.4,1.18-4.31,6.09-6.39,10-4.23,11.27,6.22,21.73,10.65,25.13-1.93,2.75-10.18-4.17-29.22-22.43-38-18.26-8.78-37.05-4.61-43.68,6.21Z"/></g><path class="cls-5" d="m266.81,210.51c-6.41,10.46,1.41,15.4,12.14,19.97,4.1,1.75,5.5,6.85,2.87,10.45-2.61,3.57-5.91,7.85-9.15,11.39-6.97,7.62,6.16,12.6,6.16,12.6l2.04.98s12.09,7.15,13.69-3.06c.75-4.79,2.05-10.11,3.22-14.4,1.18-4.31,6.09-6.39,10-4.23,11.27,6.22,21.73,10.65,25.13-1.93,2.75-10.18-4.17-29.22-22.43-38-18.26-8.78-37.05-4.61-43.68,6.21Z"/><g class="cls-8"><path class="cls-3" d="m269.2,254.44c-1.9,5.95,7.95,9.67,7.95,9.67l2.04.98s12.09,7.16,13.69-3.06c.75-4.8,2.05-10.11,3.22-14.4,1.17-4.32,6.09-6.39,10.01-4.23,11.26,6.22,21.73,10.64,25.14-1.93,1.73-6.43-.39-16.38-6.78-25.06,2.73,6.32,3.4,12.57,2.18,17.08-3.4,12.58-13.86,8.15-25.13,1.92-3.91-2.16-8.82-.08-10,4.24-1.17,4.29-2.47,9.61-3.23,14.41-1.6,10.2-13.7,3.05-13.7,3.05l-2.03-.97s-1.59-.6-3.36-1.7Z"/></g><g class="cls-10"><path class="cls-9" d="m268.76,224.95c.15-1.81.87-3.85,2.29-6.17,6.63-10.82,25.42-14.98,43.68-6.21,7.42,3.57,12.96,8.83,16.75,14.49-3.15-8.53-10.02-17.49-20.98-22.76-18.26-8.78-37.05-4.61-43.68,6.21-4.03,6.56-2.45,10.95,1.95,14.44Z"/></g><path class="cls-3" d="m289.93,272.26c-4.72.48-9.53-2.04-10.92-2.84l-1.75-.84c-1.83-.72-8.94-3.86-10.36-9.8-.52-2.18-.45-5.53,2.84-9.13,2.63-2.87,5.61-6.59,8.87-11.06.73-1,.61-2.01.46-2.53-.14-.51-.55-1.44-1.69-1.93-6.79-2.9-14.21-6.54-16.31-13.11-1.22-3.83-.43-8.06,2.34-12.59h0c8.27-13.5,29.71-16.89,48.79-7.72,20.82,10.01,27.63,31.18,24.54,42.61-1.38,5.08-3.94,8.46-7.64,10.02-6.78,2.88-15.21-1.21-23.25-5.65-1.08-.6-2.07-.34-2.56-.13-.49.21-1.36.73-1.69,1.93-1.45,5.32-2.53,10.15-3.13,13.97-.75,4.82-3.33,6.97-5.36,7.92-1.03.49-2.12.76-3.2.87Zm-19.73-59.68c-1.51,2.47-2.03,4.5-1.55,6.03,1.03,3.23,6.57,5.97,11.86,8.22,3.07,1.31,5.34,3.91,6.23,7.13.89,3.22.26,6.62-1.71,9.32-3.43,4.7-6.6,8.65-9.43,11.73-.43.47-1.12,1.34-.98,1.93.35,1.46,3.51,3.48,5.62,4.28.11.04.21.08.31.13l2.04.98c.1.05.2.1.3.16,2.21,1.29,5.58,2.31,6.85,1.71.55-.26.8-1.35.89-1.97.65-4.17,1.77-9.16,3.32-14.83.88-3.24,3.16-5.85,6.26-7.15,3.1-1.31,6.56-1.13,9.5.49,4.06,2.24,12.51,6.91,16.31,5.3,1.33-.57,2.37-2.18,3.07-4.78,2.36-8.73-4.23-25.65-20.32-33.38-17.03-8.19-33.28-3.93-38.58,4.71h0Z"/><g class="cls-8"><path class="cls-3" d="m175.86,339.45c-2.68,11.97,6.31,14.12,17.95,14.98,4.44.33,7.42,4.71,6.09,8.96-1.31,4.22-3.06,9.34-4.98,13.74-4.14,9.47,9.9,9.93,9.9,9.93l2.24.27s13.75,2.86,11.97-7.32c-.84-4.78-1.32-10.23-1.6-14.67-.28-4.46,3.7-8.01,8.1-7.23,12.68,2.25,24.01,3.06,23.16-9.95-.68-10.53-13.39-26.31-33.5-28.71-20.12-2.41-36.55,7.61-39.33,20Z"/></g><path class="cls-5" d="m159.56,332.33c-2.68,11.97,6.31,14.12,17.95,14.98,4.44.33,7.42,4.71,6.09,8.96-1.31,4.22-3.06,9.34-4.98,13.74-4.14,9.47,9.9,9.93,9.9,9.93l2.24.27s13.75,2.86,11.97-7.32c-.84-4.78-1.32-10.23-1.6-14.67-.28-4.46,3.7-8.01,8.1-7.23,12.68,2.25,24.01,3.06,23.16-9.95-.68-10.53-13.39-26.31-33.5-28.71s-36.55,7.61-39.33,20Z"/><g class="cls-8"><path class="cls-3" d="m176.01,373.14c.12,6.24,10.65,6.59,10.65,6.59l2.25.27s13.75,2.87,11.96-7.32c-.84-4.78-1.33-10.23-1.6-14.67-.28-4.46,3.7-8.01,8.1-7.24,12.67,2.25,24,3.05,23.17-9.95-.44-6.65-5.66-15.38-14.52-21.52,4.63,5.1,7.28,10.8,7.58,15.46.85,13-10.48,12.19-23.16,9.94-4.4-.78-8.37,2.77-8.09,7.24.27,4.44.77,9.9,1.6,14.68,1.78,10.17-11.98,7.31-11.98,7.31l-2.23-.27s-1.69-.05-3.73-.52Z"/></g><g class="cls-10"><path class="cls-9" d="m166.07,345.36c-.44-1.76-.42-3.93.17-6.57,2.78-12.38,19.22-22.39,39.33-19.99,8.18.98,15.12,4.16,20.53,8.3-5.74-7.06-15.13-13.32-27.21-14.76-20.11-2.41-36.55,7.61-39.33,19.99-1.69,7.51,1.22,11.16,6.51,13.04Z"/></g><path class="cls-3" d="m196.82,384.47c-2.95.3-5.65-.13-6.68-.33l-1.93-.23c-1.96-.09-9.71-.76-12.97-5.93-1.2-1.9-2.21-5.09-.26-9.56,1.54-3.52,3.21-8.13,4.83-13.33.37-1.19-.08-2.1-.38-2.54-.3-.44-.98-1.19-2.22-1.28-7.36-.55-15.56-1.59-19.67-7.14-2.39-3.23-3.02-7.49-1.85-12.67,3.47-15.45,22.65-25.58,43.68-23.07,22.94,2.75,36.23,20.58,36.99,32.4.34,5.25-1,9.28-3.99,11.95-5.49,4.92-14.78,3.76-23.83,2.16-1.22-.22-2.07.35-2.47.7-.4.36-1.05,1.14-.98,2.37.35,5.5.88,10.42,1.55,14.23.84,4.8-.9,7.67-2.51,9.23-2.03,1.97-4.77,2.77-7.31,3.03Zm-8.44-68.31c-13.58,1.38-23.15,9.01-24.95,17.04h0c-.63,2.83-.47,4.91.48,6.2,2.02,2.72,8.15,3.52,13.88,3.95,3.33.25,6.32,1.97,8.2,4.73,1.88,2.76,2.39,6.18,1.39,9.37-1.73,5.55-3.45,10.31-5.13,14.15-.25.58-.63,1.63-.3,2.14.8,1.27,4.44,2.16,6.7,2.23.11,0,.23.01.34.03l2.24.27c.11.01.23.03.34.06,2.51.51,6.03.39,7.04-.59.44-.43.32-1.53.21-2.15-.73-4.16-1.29-9.24-1.66-15.11-.21-3.35,1.11-6.55,3.61-8.79,2.51-2.24,5.84-3.19,9.14-2.6,4.57.81,14.07,2.49,17.15-.26,1.08-.97,1.54-2.82,1.36-5.52-.59-9.02-12.29-22.91-30.01-25.03-3.53-.42-6.89-.44-10.04-.12Zm-28.82,16.17h.01s-.01,0-.01,0Z"/><g class="cls-8"><path class="cls-3" d="m382.79,317.93c-2.68,11.97,6.31,14.12,17.95,14.98,4.44.33,7.42,4.71,6.09,8.96-1.31,4.22-3.06,9.34-4.98,13.74-4.14,9.47,9.9,9.93,9.9,9.93l2.24.27s13.75,2.86,11.97-7.32c-.84-4.78-1.32-10.23-1.6-14.67-.28-4.46,3.7-8.01,8.1-7.23,12.68,2.25,24.01,3.06,23.16-9.95-.68-10.53-13.39-26.31-33.5-28.71-20.12-2.41-36.55,7.61-39.33,20Z"/></g><path class="cls-5" d="m366.49,310.81c-2.68,11.97,6.31,14.12,17.95,14.98,4.44.33,7.42,4.71,6.09,8.96-1.31,4.22-3.06,9.34-4.98,13.74-4.14,9.47,9.9,9.93,9.9,9.93l2.24.27s13.75,2.86,11.97-7.32c-.84-4.78-1.32-10.23-1.6-14.67-.28-4.46,3.7-8.01,8.1-7.23,12.68,2.25,24.01,3.06,23.16-9.95-.68-10.53-13.39-26.31-33.5-28.71-20.12-2.41-36.55,7.61-39.33,20Z"/><g class="cls-8"><path class="cls-3" d="m382.94,351.61c.12,6.24,10.65,6.59,10.65,6.59l2.25.27s13.75,2.87,11.96-7.32c-.84-4.78-1.33-10.23-1.6-14.67-.28-4.46,3.7-8.01,8.1-7.24,12.67,2.25,24,3.05,23.17-9.95-.44-6.65-5.66-15.38-14.52-21.52,4.63,5.1,7.28,10.8,7.58,15.46.85,13-10.48,12.19-23.16,9.94-4.4-.78-8.37,2.77-8.09,7.24.27,4.44.77,9.9,1.6,14.68,1.78,10.17-11.98,7.31-11.98,7.31l-2.23-.27s-1.69-.05-3.73-.52Z"/></g><g class="cls-10"><path class="cls-9" d="m373,323.84c-.44-1.76-.42-3.93.17-6.57,2.78-12.38,19.22-22.39,39.33-19.99,8.18.98,15.12,4.16,20.53,8.3-5.74-7.06-15.13-13.32-27.21-14.76-20.11-2.41-36.55,7.61-39.33,19.99-1.69,7.51,1.22,11.16,6.51,13.04Z"/></g><path class="cls-3" d="m403.75,362.95c-2.95.3-5.65-.13-6.69-.33l-1.93-.23c-1.96-.09-9.71-.76-12.97-5.93-1.2-1.9-2.21-5.09-.26-9.56,1.54-3.52,3.21-8.13,4.82-13.33.37-1.19-.08-2.1-.38-2.54-.3-.44-.98-1.19-2.22-1.28-7.36-.55-15.56-1.59-19.67-7.14-2.39-3.23-3.02-7.49-1.85-12.67h0c3.47-15.45,22.66-25.58,43.68-23.07,22.94,2.75,36.22,20.58,36.99,32.4.34,5.25-1,9.28-3.99,11.95-5.49,4.92-14.78,3.76-23.83,2.16-1.22-.22-2.07.35-2.47.7-.4.36-1.05,1.14-.98,2.37.35,5.58.87,10.37,1.55,14.23.84,4.8-.9,7.67-2.51,9.23-2.03,1.97-4.77,2.77-7.31,3.03Zm-33.39-51.28c-.63,2.83-.47,4.91.48,6.2,2.02,2.72,8.15,3.52,13.88,3.95,3.33.25,6.32,1.97,8.2,4.73,1.88,2.76,2.39,6.18,1.39,9.37-1.73,5.55-3.45,10.31-5.13,14.15-.25.58-.63,1.62-.3,2.14.75,1.19,4.14,2.14,6.71,2.24.11,0,.22.01.33.03l2.24.27c.11.01.23.03.34.05,2.51.51,6.03.39,7.04-.59.44-.43.32-1.53.21-2.15-.73-4.15-1.29-9.24-1.66-15.11-.21-3.35,1.11-6.56,3.61-8.79,2.51-2.24,5.84-3.19,9.14-2.6,4.57.81,14.07,2.49,17.15-.26,1.08-.97,1.54-2.82,1.36-5.52-.59-9.02-12.29-22.91-30.01-25.03-18.76-2.25-32.77,7.04-34.99,16.92h0Z"/><g><path class="cls-11" d="m274.4,308.65c8.13,9.11,18.68,14.42,32.06,15.33l-6.56,13.71c-12.78-.74-23.46-5.85-32.06-15.33l6.56-13.71Z"/><g class="cls-10"><path class="cls-9" d="m267.84,322.36l6.56-13.72c1.45,1.63,2.98,3.13,4.59,4.51l-4.07,8.5c7.12,7.86,15.68,12.72,25.68,14.56l-.7,1.48c-12.77-.74-23.46-5.85-32.06-15.33Z"/></g><path class="cls-3" d="m300.23,340.9c-.17.02-.34.02-.51.01-13.59-.78-25.12-6.3-34.26-16.38-.88-.97-1.09-2.38-.52-3.56l6.56-13.71c.47-.97,1.39-1.65,2.46-1.8,1.07-.15,2.14.24,2.87,1.05,7.82,8.76,17.59,13.42,29.86,14.26,1.07.07,2.03.67,2.57,1.59.54.92.59,2.06.13,3.02l-6.56,13.71c-.49,1.03-1.48,1.71-2.59,1.82Zm-28.52-19.15c7.29,7.39,15.9,11.51,26.23,12.54l3.63-7.6c-10.18-1.52-18.98-5.7-26.25-12.49l-3.61,7.54Z"/></g><g><path class="cls-11" d="m106.24,262.35c8.13,9.11,18.68,14.42,32.06,15.33l-6.56,13.71c-12.78-.74-23.46-5.85-32.06-15.33l6.56-13.71Z"/><g class="cls-10"><path class="cls-9" d="m99.69,276.07l6.56-13.72c1.45,1.63,2.98,3.13,4.59,4.51l-4.07,8.5c7.12,7.86,15.68,12.72,25.68,14.56l-.7,1.48c-12.77-.74-23.46-5.85-32.06-15.33Z"/></g><path class="cls-3" d="m132.07,294.6c-.17.02-.34.02-.51.01-13.59-.78-25.12-6.3-34.26-16.38-.88-.97-1.09-2.38-.52-3.56l6.56-13.71c.47-.97,1.39-1.65,2.46-1.8,1.07-.14,2.15.24,2.86,1.05,7.82,8.76,17.59,13.42,29.87,14.25,1.07.07,2.03.67,2.57,1.59.54.92.59,2.06.13,3.02l-6.56,13.71c-.49,1.03-1.48,1.71-2.59,1.82Zm-28.51-19.15c7.29,7.39,15.9,11.51,26.23,12.54l3.63-7.6c-10.18-1.52-18.98-5.7-26.25-12.49l-3.61,7.54Z"/></g><g><path class="cls-11" d="m460.44,97.2c-11.18,4.9-19.51,13.28-24.53,25.71l-11-10.49c4.67-11.91,12.85-20.48,24.53-25.71l11,10.49Z"/><g class="cls-10"><path class="cls-9" d="m449.44,86.71l11,10.5c-2,.87-3.9,1.86-5.71,2.96l-6.82-6.51c-9.69,4.33-16.96,10.95-21.81,19.89l-1.19-1.12c4.67-11.91,12.85-20.48,24.53-25.71Z"/></g><path class="cls-3" d="m436.24,126.12c-.93.1-1.87-.22-2.56-.88l-11-10.49c-.95-.91-1.26-2.29-.78-3.52,4.97-12.67,13.79-21.92,26.22-27.48,1.2-.54,2.6-.29,3.55.61l11,10.49c.78.75,1.14,1.83.95,2.9-.19,1.06-.89,1.96-1.89,2.4-10.76,4.71-18.22,12.55-22.83,23.96-.4.99-1.27,1.72-2.31,1.95-.12.03-.24.04-.35.06Zm-7.49-14.51l6.09,5.81c4.61-9.21,11.32-16.27,20.03-21.07l-6.05-5.77c-9.29,4.63-15.88,11.54-20.07,21.03Z"/></g><g><path class="cls-11" d="m350.89,495.65c-11.18,4.9-19.51,13.28-24.53,25.71l-11-10.49c4.67-11.91,12.85-20.48,24.53-25.71l11,10.49Z"/><g class="cls-10"><path class="cls-9" d="m339.89,485.15l11,10.5c-2,.87-3.9,1.86-5.71,2.96l-6.82-6.51c-9.69,4.33-16.96,10.95-21.81,19.89l-1.19-1.12c4.67-11.91,12.85-20.48,24.53-25.71Z"/></g><path class="cls-3" d="m326.69,524.57c-.93.1-1.87-.22-2.56-.88l-11-10.49c-.95-.91-1.26-2.29-.78-3.52,4.97-12.67,13.79-21.92,26.22-27.48,1.2-.53,2.6-.29,3.55.61l11,10.49c.78.75,1.14,1.83.95,2.9-.19,1.06-.89,1.96-1.89,2.4-10.76,4.71-18.22,12.55-22.83,23.96-.4.99-1.27,1.72-2.31,1.95-.12.03-.24.04-.35.06Zm-7.49-14.51l6.09,5.81c4.61-9.21,11.32-16.27,20.03-21.07l-6.05-5.77c-9.29,4.63-15.88,11.54-20.07,21.03Z"/></g><g class="cls-8"><path class="cls-3" d="m215.39,255.09c-3.95.95-8.15,1.3-11.65,3.35-3.5,2.05-6.03,6.63-4.12,10.21,1.4,2.64,4.72,3.77,7.69,3.47,2.97-.3,5.68-1.75,8.31-3.17,2.63-1.42,5.34-2.87,8.31-3.18,5.82-.61,10.04.62,14.19-4.42,2.63-3.19,4.2-7.76,1.61-11.41-5.85-8.27-17.48,3.49-24.34,5.14Z"/></g><g class="cls-8"><path class="cls-3" d="m241.47,235.02c-.49,1.78-.1,3.67.28,5.48.4,1.88,1.06,4.07,2.89,4.66,1.21.4,2.52-.08,3.69-.61,1.67-.75,3.3-1.63,4.63-2.89,1.33-1.26,2.33-2.94,2.47-4.76.17-2.24-1.08-4.53-3.06-5.6-3.09-1.67-9.89.03-10.89,3.71Z"/></g><g class="cls-8"><path class="cls-3" d="m104.57,206.12c.84,2.97,2.41,5.68,4.11,8.25,1.58,2.39,3.31,4.72,4.3,7.41.98,2.69,1.12,5.86-.43,8.27-1.85,2.88-5.82,3.95-9.1,2.99-3.29-.96-5.88-3.62-7.43-6.67-1.55-3.05-2.18-6.49-2.59-9.88-.76-6.22-.67-13.11,3.25-18,1.49-1.85,4.99-4.16,7.04-1.7,1.53,1.83.19,6.98.86,9.35Z"/></g><g class="cls-8"><path class="cls-3" d="m237.61,408.57c.42,3.11,1.64,6.29,4.17,8.14,2.53,1.85,6.57,1.81,8.44-.7,1.91-2.56.91-6.15,1.11-9.34.21-3.21,1.8-6.31,4.3-8.34,2.36-1.92,5.52-2.96,7.24-5.48,2.06-3,1.09-7.64-2-9.56-4.87-3.03-13.02,3.04-16.49,6.41-4.95,4.81-7.71,11.97-6.78,18.86Z"/></g><g class="cls-8"><path class="cls-3" d="m468.58,285.03c-.18,2.52-.13,5.39-1.97,7.12-1.97,1.86-5.3,1.4-7.45-.24-2.86-2.17-4.16-5.99-3.86-9.57s2.01-6.91,4.25-9.73c2.07-2.61,4.79-4.95,8.08-5.51,3.94-.68,9.19,2.05,6.37,5.89-2.88,3.91-5.05,6.92-5.41,12.04Z"/></g><g class="cls-8"><path class="cls-3" d="m328.12,293.58c-3.18,4.35-4.43,10.05-3.36,15.33.36,1.8,1.02,3.6,2.29,4.91,1.27,1.32,3.27,2.05,5,1.43,2.35-.84,3.3-3.64,3.6-6.12.3-2.48.36-5.2,1.98-7.11,2.11-2.48,6.04-2.57,8.39-4.81,4.03-3.84.58-10.18-4.27-11.19-4.9-1.02-10.99,3.94-13.63,7.55Z"/></g><g class="cls-8"><path class="cls-3" d="m351.89,275.65c1.01-.65,2.33-.91,3.45-.48,1.36.53,2.17,1.92,2.77,3.26.61,1.36,1.12,2.88.71,4.31-.6,2.09-3.11,3.2-5.24,2.75-1.59-.33-3-1.4-3.76-2.83-1.4-2.63-.35-5.46,2.07-7.01Z"/></g><g class="cls-8"><path class="cls-3" d="m393.7,400.22c1.01-.65,2.33-.91,3.45-.48,1.36.53,2.17,1.92,2.77,3.26.61,1.36,1.12,2.88.71,4.31-.6,2.09-3.11,3.2-5.24,2.75-1.59-.33-3-1.4-3.76-2.83-1.4-2.63-.35-5.46,2.07-7.01Z"/></g><g class="cls-8"><path class="cls-3" d="m177.42,119.69c1.01-.65,2.33-.91,3.45-.48,1.36.53,2.17,1.92,2.77,3.26.61,1.36,1.12,2.88.71,4.31-.6,2.09-3.11,3.2-5.24,2.75-1.59-.33-3-1.4-3.76-2.83-1.4-2.63-.35-5.46,2.07-7.01Z"/></g><g class="cls-8"><path class="cls-3" d="m268.53,449.62c1.01-.65,2.33-.91,3.45-.48,1.36.53,2.17,1.92,2.77,3.26.61,1.36,1.12,2.88.71,4.31-.6,2.09-3.11,3.2-5.24,2.75-1.59-.33-3-1.4-3.76-2.83-1.4-2.63-.35-5.46,2.07-7.01Z"/></g><g class="cls-8"><path class="cls-3" d="m121.68,319.35c1.01-.65,2.33-.91,3.45-.48,1.36.53,2.17,1.92,2.77,3.26.61,1.36,1.12,2.88.71,4.31-.6,2.09-3.11,3.2-5.24,2.75-1.59-.33-3-1.4-3.76-2.83-1.4-2.63-.35-5.46,2.07-7.01Z"/></g><g class="cls-8"><path class="cls-3" d="m396.23,117.75c1.01-.65,2.33-.91,3.45-.48,1.36.53,2.17,1.92,2.77,3.26.61,1.36,1.12,2.88.71,4.31-.6,2.09-3.11,3.2-5.24,2.75-1.59-.33-3-1.4-3.76-2.83-1.4-2.63-.35-5.46,2.07-7.01Z"/></g></g></g></svg>