<?xml version="1.0" encoding="utf-8"?>
<!-- Generator: Adobe Illustrator 27.2.0, SVG Export Plug-In . SVG Version: 6.00 Build 0)  -->
<svg version="1.1" id="Camada_2_00000085220870639328401980000012523990881592296635_"
	 xmlns="http://www.w3.org/2000/svg" xmlns:xlink="http://www.w3.org/1999/xlink" x="0px" y="0px" viewBox="0 0 100 75.5"
	 style="enable-background:new 0 0 100 75.5;" xml:space="preserve">
<style type="text/css">
	.st0{fill:#FFE8BB;}
	.st1{fill:#000102;}
</style>
<g id="Camada_1-2">
	<path class="st0" d="M7.5,0l85.1,0.2c6.6,0,9.9,8,5.3,12.7l-60,60.3c-3,3-8,2.9-10.9-0.3C11.6,55.3,1.8,32.7,0,7.9
		C-0.3,3.6,3.2,0,7.5,0z"/>
	<path class="st1" d="M53.5,28.7L53.5,28.7c0,1.4-1.1,2.5-2.5,2.5H27.2c-1.4,0-2.5-1.1-2.5-2.5v0c0-1.4,1.1-2.5,2.5-2.5H51
		C52.4,26.2,53.5,27.3,53.5,28.7z"/>
	<path class="st1" d="M53.5,18.9L53.5,18.9c0,1.4-1.1,2.5-2.5,2.5H27.2c-1.4,0-2.5-1.1-2.5-2.5v0c0-1.4,1.1-2.5,2.5-2.5H51
		C52.4,16.4,53.5,17.5,53.5,18.9z"/>
	<path class="st1" d="M53.5,38.5L53.5,38.5c0,1.4-1.1,2.5-2.5,2.5H27.2c-1.4,0-2.5-1.1-2.5-2.5v0c0-1.4,1.1-2.5,2.5-2.5H51
		C52.4,36,53.5,37.1,53.5,38.5z"/>
</g>
</svg>
